<?xml version="1.0" encoding="UTF-8"?>
<svg version="1.1" xmlns="http://www.w3.org/2000/svg" width="291" height="74">
<path d="M0 0 C7.40048701 0.3217603 13.71763039 3.54266399 18.83203125 8.9296875 C20.34434009 10.89760331 21.69707125 12.88835685 23 15 C23.40089844 15.63550781 23.80179688 16.27101563 24.21484375 16.92578125 C28.82307829 24.58430626 29.16614748 33.26324799 28 42 C25.12455197 51.02432999 20.87661114 56.3810792 12.625 60.8125 C4.33016237 63.5297744 -2.30501231 61.69774109 -10 58 C-18.90975275 52.40589952 -23.60409177 43.21901681 -26.375 33.34765625 C-27.85883956 25.39984061 -26.72392313 18.12402685 -23 11 C-16.25 10.875 -16.25 10.875 -14 12 C-14.165 12.763125 -14.33 13.52625 -14.5 14.3125 C-16.02738581 25.57697039 -14.40316028 32.53285833 -8 41.9375 C-2.73699302 47.36497595 3.66441557 48.593019 11 49 C14.62737571 48.19179214 14.62737571 48.19179214 17 46 C18.33903214 43.65245602 18.33903214 43.65245602 19 41 C19.37125 40.236875 19.7425 39.47375 20.125 38.6875 C22.3173679 31.95379858 20.98780501 26.18078119 18 20 C14.69919166 14.08130919 10.84397449 11.31260361 4.75 8.5 C1.81168952 6.89728519 0.98184784 6.14191309 0 3 C0 2.01 0 1.02 0 0 Z M19 15 C20 17 20 17 20 17 Z M21 18 C22 21 22 21 22 21 Z M22 21 C23 23 23 23 23 23 Z M23 24 C24 28 24 28 24 28 Z M23 35 C24 38 24 38 24 38 Z M-16 50 C-15.34 50.66 -14.68 51.32 -14 52 C-14 51.34 -14 50.68 -14 50 C-14.66 50 -15.32 50 -16 50 Z " fill="#595E61" transform="translate(33,8)"/>
<path d="M0 0 C6.75 -0.125 6.75 -0.125 9 1 C8.835 1.763125 8.67 2.52625 8.5 3.3125 C6.70234165 16.57023033 10.01268644 24.5023879 18 35 C17.34 35 16.68 35 16 35 C16.01160156 35.63808594 16.02320312 36.27617188 16.03515625 36.93359375 C16.04417969 37.75988281 16.05320312 38.58617187 16.0625 39.4375 C16.07410156 40.26121094 16.08570312 41.08492187 16.09765625 41.93359375 C16 44 16 44 15 45 C21.45791576 48.45423401 27.76340555 48.68441919 35 49 C31.20950761 51.52699493 28.37892721 51.57522853 24 51 C13.7091624 48.40145277 6.96557412 43.59134993 1.359375 34.609375 C-3.32261507 25.6221067 -5.0926001 16.96891437 -3 7 C-2.17996859 4.48011182 -1.23241775 2.35766875 0 0 Z M7 39 C7.66 39.66 8.32 40.32 9 41 C9 40.34 9 39.68 9 39 C8.34 39 7.68 39 7 39 Z " fill="#080B12" transform="translate(10,19)"/>
<path d="M0 0 C3.875 0.8125 3.875 0.8125 5.89453125 3.48828125 C7.6627046 6.55287498 9.31943127 9.63516813 10.875 12.8125 C11.205 8.8525 11.535 4.8925 11.875 0.8125 C13.525 0.8125 15.175 0.8125 16.875 0.8125 C17.875 1.8125 17.875 1.8125 17.98852539 4.12915039 C17.98328857 5.12938232 17.97805176 6.12961426 17.97265625 7.16015625 C17.96943359 8.23974609 17.96621094 9.31933594 17.96289062 10.43164062 C17.95451172 11.56794922 17.94613281 12.70425781 17.9375 13.875 C17.93298828 15.01517578 17.92847656 16.15535156 17.92382812 17.33007812 C17.91199747 20.15760351 17.8955141 22.9850264 17.875 25.8125 C15.895 26.1425 13.915 26.4725 11.875 26.8125 C8.44728865 22.8951156 3.875 17.29098189 3.875 11.8125 C3.215 11.8125 2.555 11.8125 1.875 11.8125 C1.95878906 12.73933594 2.04257813 13.66617188 2.12890625 14.62109375 C2.23074219 15.81863281 2.33257812 17.01617187 2.4375 18.25 C2.54191406 19.44496094 2.64632812 20.63992187 2.75390625 21.87109375 C2.79386719 22.84175781 2.83382812 23.81242187 2.875 24.8125 C1.875 25.8125 1.875 25.8125 -1.1875 25.875 C-2.156875 25.854375 -3.12625 25.83375 -4.125 25.8125 C-4.15386984 21.83334841 -4.17175406 17.85422347 -4.1875 13.875 C-4.19587891 12.73869141 -4.20425781 11.60238281 -4.21289062 10.43164062 C-4.21611328 9.35205078 -4.21933594 8.27246094 -4.22265625 7.16015625 C-4.22789307 6.15992432 -4.23312988 5.15969238 -4.23852539 4.12915039 C-4.06472683 0.58253855 -3.55176404 0.92345865 0 0 Z " fill="#D71622" transform="translate(240.125,39.1875)"/>
<path d="M0 0 C4.573737 2.56129272 4.573737 2.56129272 6.125 5.75 C7.18573643 10.37178017 7.33953831 12.89184677 6.1875 17.5 C3.48206797 21.76310501 0.97611289 23.44059392 -3.875 24.75 C-7.57447533 25.0948246 -11.17814265 25.1463239 -14.875 24.75 C-15.875 23.75 -15.875 23.75 -15.98852539 21.43334961 C-15.98328857 20.43311768 -15.97805176 19.43288574 -15.97265625 18.40234375 C-15.96943359 17.32275391 -15.96621094 16.24316406 -15.96289062 15.13085938 C-15.95451172 13.99455078 -15.94613281 12.85824219 -15.9375 11.6875 C-15.93298828 10.54732422 -15.92847656 9.40714844 -15.92382812 8.23242188 C-15.91199747 5.40489649 -15.8955141 2.5774736 -15.875 -0.25 C-10.64371074 -1.99376309 -5.1735979 -2.02540854 0 0 Z M-4.875 2.75 C-4.875 3.74 -4.875 4.73 -4.875 5.75 C-7.185 6.41 -9.495 7.07 -11.875 7.75 C-11.875 10.72 -11.875 13.69 -11.875 16.75 C-9.565 16.75 -7.255 16.75 -4.875 16.75 C-4.545 17.74 -4.215 18.73 -3.875 19.75 C-0.32931161 15.7379419 -0.32931161 15.7379419 1.125 10.75 C0.20848622 8.54808017 0.20848622 8.54808017 -1.25 6.5 C-1.71148437 5.79359375 -2.17296875 5.0871875 -2.6484375 4.359375 C-3.25558594 3.56273437 -3.25558594 3.56273437 -3.875 2.75 C-4.205 2.75 -4.535 2.75 -4.875 2.75 Z " fill="#B6242A" transform="translate(180.875,40.25)"/>
<path d="M0 0 C1.77101591 3.12036137 1.23553401 4.92804195 0.3125 8.3125 C-0.3475 8.3125 -1.0075 8.3125 -1.6875 8.3125 C-0.98625 9.364375 -0.285 10.41625 0.4375 11.5 C2.37582128 14.91448054 2.37582128 14.91448054 1.875 18.0625 C-0.04691302 20.83005475 -1.66679689 21.82538462 -4.6875 23.3125 C-7.765625 23.640625 -7.765625 23.640625 -10.9375 23.5625 C-11.99453125 23.54703125 -13.0515625 23.5315625 -14.140625 23.515625 C-16.6875 23.3125 -16.6875 23.3125 -17.6875 22.3125 C-17.78638535 20.87119931 -17.81829377 19.42515623 -17.8203125 17.98046875 C-17.82160156 17.09939453 -17.82289063 16.21832031 -17.82421875 15.31054688 C-17.82035156 14.38306641 -17.81648437 13.45558594 -17.8125 12.5 C-17.81636719 11.58412109 -17.82023438 10.66824219 -17.82421875 9.72460938 C-17.82292969 8.83966797 -17.82164062 7.95472656 -17.8203125 7.04296875 C-17.81918457 6.23239014 -17.81805664 5.42181152 -17.81689453 4.58666992 C-17.69077761 2.37010549 -17.30149667 0.44075756 -16.6875 -1.6875 C-11.11710393 -3.37667103 -4.96404022 -3.11695549 0 0 Z M-10.6875 2.3125 C-11.0175 2.9725 -11.3475 3.6325 -11.6875 4.3125 C-10.79586423 6.42933841 -10.79586423 6.42933841 -9.6875 8.3125 C-8.3675 7.9825 -7.0475 7.6525 -5.6875 7.3125 C-6.0175 5.6625 -6.3475 4.0125 -6.6875 2.3125 C-8.0075 2.3125 -9.3275 2.3125 -10.6875 2.3125 Z M-10.6875 12.3125 C-11.39016613 15.28824276 -11.39016613 15.28824276 -11.6875 18.3125 C-9.7075 18.3125 -7.7275 18.3125 -5.6875 18.3125 C-5.0060177 16.42070797 -5.0060177 16.42070797 -4.6875 14.3125 C-5.3475 13.6525 -6.0075 12.9925 -6.6875 12.3125 C-8.0075 12.3125 -9.3275 12.3125 -10.6875 12.3125 Z " fill="#BC121D" transform="translate(207.6875,41.6875)"/>
<path d="M0 0 C2.5625 1.5625 2.5625 1.5625 3.5625 2.5625 C3.75 5.5 3.75 5.5 3.5625 8.5625 C2.9025 9.2225 2.2425 9.8825 1.5625 10.5625 C2.078125 11.078125 2.59375 11.59375 3.125 12.125 C4.5625 14.5625 4.5625 14.5625 4.5625 18.125 C3.5625 21.5625 3.5625 21.5625 1.6875 23.4375 C-2.90600617 25.09116222 -7.5644771 25.53111177 -12.4375 25.5625 C-13.0975 25.2325 -13.7575 24.9025 -14.4375 24.5625 C-14.4375 16.3125 -14.4375 8.0625 -14.4375 -0.4375 C-9.23542242 -2.17152586 -4.9818588 -2.08332277 0 0 Z M-7.4375 3.5625 C-7.7675 5.2125 -8.0975 6.8625 -8.4375 8.5625 C-6.7875 8.5625 -5.1375 8.5625 -3.4375 8.5625 C-3.1075 7.2425 -2.7775 5.9225 -2.4375 4.5625 C-4.0875 4.2325 -5.7375 3.9025 -7.4375 3.5625 Z M-8.4375 13.5625 C-8.4375 15.5425 -8.4375 17.5225 -8.4375 19.5625 C-6.7875 19.5625 -5.1375 19.5625 -3.4375 19.5625 C-3.05531233 17.90635343 -2.72354898 16.23792976 -2.4375 14.5625 C-3.50395115 13.26616379 -3.50395115 13.26616379 -6 13.5 C-6.804375 13.520625 -7.60875 13.54125 -8.4375 13.5625 Z " fill="#C6181F" transform="translate(86.4375,39.4375)"/>
<path d="M0 0 C5.31404149 0.04843527 9.73684436 0.90144129 13.9375 4.3125 C16.58048647 8.45462306 16.58271238 12.54785477 15.9375 17.3125 C14.121046 21.3995215 12.2937166 23.44410122 8.25 25.1875 C3.98525048 26.53173625 -0.64497095 27.2473298 -5.0625 26.3125 C-7.29528283 22.96332575 -7.27207032 22.11120783 -7.07421875 18.2421875 C-7.02716797 17.26378906 -6.98011719 16.28539062 -6.93164062 15.27734375 C-6.87169922 14.25769531 -6.81175781 13.23804688 -6.75 12.1875 C-6.70166016 11.16011719 -6.65332031 10.13273437 -6.60351562 9.07421875 C-6.13839697 0.16042578 -6.13839697 0.16042578 0 0 Z M1.9375 4.3125 C0.03992309 6.87868622 -1.68916585 9.42580546 -3.0625 12.3125 C-2.38808251 16.45535032 0.24285069 19.16874247 2.9375 22.3125 C2.9375 20.9925 2.9375 19.6725 2.9375 18.3125 C5.2475 18.3125 7.5575 18.3125 9.9375 18.3125 C9.9375 15.0125 9.9375 11.7125 9.9375 8.3125 C7.6275 8.3125 5.3175 8.3125 2.9375 8.3125 C2.6075 6.9925 2.2775 5.6725 1.9375 4.3125 Z " fill="#B81720" transform="translate(268.0625,39.6875)"/>
<path d="M0 0 C3.49522239 1.71583645 5.38570908 2.96687436 7.375 6.3125 C8.4764659 11.04880337 8.50623828 14.68378047 6.75 19.25 C4.14499274 23.34358284 2.39081776 24.63261418 -2.3125 25.875 C-7.41957957 26.04812134 -11.05706721 24.74863951 -14.875 21.3125 C-17.29738366 16.33315582 -17.42634096 12.42113654 -15.875 7.25 C-11.93941668 0.42832224 -7.61176465 -1.32669842 0 0 Z M-8.8125 6.5625 C-10.44489575 9.91320706 -10.39469235 12.31620474 -10 16 C-8.98009206 18.50098982 -8.98009206 18.50098982 -7 20 C-4.5 20.58333333 -4.5 20.58333333 -2 20 C0.12263747 18.38009245 0.90836323 17.49591661 1.3984375 14.84375 C1.39070313 14.0703125 1.38296875 13.296875 1.375 12.5 C1.38273437 11.7265625 1.39046875 10.953125 1.3984375 10.15625 C0.90836323 7.50408339 0.12263747 6.61990755 -2 5 C-5.12528712 4.45307475 -6.38311983 4.46820675 -8.8125 6.5625 Z " fill="#BE181E" transform="translate(131,39)"/>
<path d="M0 0 C2.21698046 2.89171364 1.75779955 5.35170494 1.4375 8.875 C1.1075 9.535 0.7775 10.195 0.4375 10.875 C-0.2225 10.875 -0.8825 10.875 -1.5625 10.875 C-1.27375 11.56207031 -0.985 12.24914063 -0.6875 12.95703125 C-0.130625 14.30861328 -0.130625 14.30861328 0.4375 15.6875 C0.80875 16.58082031 1.18 17.47414063 1.5625 18.39453125 C2.4375 20.875 2.4375 20.875 2.4375 23.875 C0.4575 23.875 -1.5225 23.875 -3.5625 23.875 C-3.74425781 23.30910156 -3.92601563 22.74320313 -4.11328125 22.16015625 C-4.36464844 21.42667969 -4.61601563 20.69320312 -4.875 19.9375 C-5.11863281 19.20660156 -5.36226562 18.47570312 -5.61328125 17.72265625 C-6.47490441 15.51567976 -6.47490441 15.51567976 -9.5625 14.875 C-9.8925 17.845 -10.2225 20.815 -10.5625 23.875 C-12.5425 23.875 -14.5225 23.875 -16.5625 23.875 C-16.5625 15.625 -16.5625 7.375 -16.5625 -1.125 C-10.66288939 -2.30492212 -5.57768412 -2.44873937 0 0 Z M-9.5625 2.875 C-10.91868499 4.00034105 -10.91868499 4.00034105 -10.625 6.9375 C-10.604375 7.906875 -10.58375 8.87625 -10.5625 9.875 C-8.9125 9.545 -7.2625 9.215 -5.5625 8.875 C-4.8810177 6.98320797 -4.8810177 6.98320797 -4.5625 4.875 C-5.2225 4.215 -5.8825 3.555 -6.5625 2.875 C-7.5525 2.875 -8.5425 2.875 -9.5625 2.875 Z " fill="#C7171E" transform="translate(110.5625,40.125)"/>
<path d="M0 0 C2.05078125 0.03255208 4.1015625 0.06510417 6.15234375 0.09765625 C7.35673026 3.67553714 8.53786549 7.2606749 9.71484375 10.84765625 C10.22821289 12.37132812 10.22821289 12.37132812 10.75195312 13.92578125 C11.07099609 14.90546875 11.39003906 15.88515625 11.71875 16.89453125 C12.01724854 17.79526367 12.31574707 18.69599609 12.62329102 19.62402344 C13.1775932 22.21571229 13.0224775 23.62597198 12.15234375 26.09765625 C10.17234375 25.76765625 8.19234375 25.43765625 6.15234375 25.09765625 C5.82234375 23.11765625 5.49234375 21.13765625 5.15234375 19.09765625 C2.2050684 19.19934786 2.2050684 19.19934786 -0.84765625 20.09765625 C-1.54977519 21.74970081 -2.21737038 23.41689394 -2.84765625 25.09765625 C-5.34765625 25.97265625 -5.34765625 25.97265625 -7.84765625 26.09765625 C-8.50765625 25.76765625 -9.16765625 25.43765625 -9.84765625 25.09765625 C-3.25409384 0.17199227 -3.25409384 0.17199227 0 0 Z M1.15234375 6.09765625 C0.49234375 8.73765625 -0.16765625 11.37765625 -0.84765625 14.09765625 C0.80234375 14.09765625 2.45234375 14.09765625 4.15234375 14.09765625 C3.49234375 11.45765625 2.83234375 8.81765625 2.15234375 6.09765625 C1.82234375 6.09765625 1.49234375 6.09765625 1.15234375 6.09765625 Z " fill="#CE141B" transform="translate(148.84765625,38.90234375)"/>
<path d="M0 0 C7.40048701 0.3217603 13.71763039 3.54266399 18.83203125 8.9296875 C20.34434009 10.89760331 21.69707125 12.88835685 23 15 C23.40089844 15.63550781 23.80179688 16.27101563 24.21484375 16.92578125 C28.80948924 24.56172232 29.11411822 33.28062693 28 42 C26.75122301 45.65900392 25.15576834 48.79714419 23 52 C22.34 51.67 21.68 51.34 21 51 C21.66 50.01 22.32 49.02 23 48 C23.16713569 45.37468476 23.16713569 45.37468476 23 43 C21.02 43.66 19.04 44.32 17 45 C17.28875 44.443125 17.5775 43.88625 17.875 43.3125 C21.21485825 36.44723583 22.30080554 31.30193103 19.75 23.875 C16.48854763 16.1385316 12.38832333 12.02538 4.75 8.5 C1.81168952 6.89728519 0.98184784 6.14191309 0 3 C0 2.01 0 1.02 0 0 Z M19 15 C20 17 20 17 20 17 Z M21 18 C22 21 22 21 22 21 Z M22 21 C23 23 23 23 23 23 Z M23 24 C24 28 24 28 24 28 Z M23 35 C24 38 24 38 24 38 Z " fill="#040811" transform="translate(33,8)"/>
<path d="M0 0 C2.64 0 5.28 0 8 0 C16 18.85106383 16 18.85106383 16 25 C13.69 25 11.38 25 9 25 C8.34 23.35 7.68 21.7 7 20 C5.02 20 3.04 20 1 20 C0.01 22.475 0.01 22.475 -1 25 C-2.98 25 -4.96 25 -7 25 C-6.38574623 19.2073537 -4.84466956 14.05390934 -2.9375 8.5625 C-2.65583984 7.73556641 -2.37417969 6.90863281 -2.08398438 6.05664062 C-1.39482208 4.03587662 -0.6981769 2.01766718 0 0 Z M3 7 C2.67 9.31 2.34 11.62 2 14 C3.32 14 4.64 14 6 14 C5.67 11.69 5.34 9.38 5 7 C4.34 7 3.68 7 3 7 Z " fill="#CE171E" transform="translate(218,40)"/>
<path d="M0 0 C1.98 0 3.96 0 6 0 C7.98 3.63 9.96 7.26 12 11 C12.33 7.37 12.66 3.74 13 0 C14.65 0 16.3 0 18 0 C18 7.26 18 14.52 18 22 C16.02 22 14.04 22 12 22 C10.13671875 19.8828125 10.13671875 19.8828125 8.6875 17.125 C8.19636719 16.22007813 7.70523437 15.31515625 7.19921875 14.3828125 C6.46440126 12.9227517 5.73099033 11.46198065 5 10 C5 13.63 5 17.26 5 21 C3.35 21.33 1.7 21.66 0 22 C-1.58937556 20.41062444 -1.12981143 18.76100154 -1.1328125 16.5625 C-1.13410156 15.66789062 -1.13539063 14.77328125 -1.13671875 13.8515625 C-1.13091797 12.44003906 -1.13091797 12.44003906 -1.125 11 C-1.12886719 10.05898438 -1.13273437 9.11796875 -1.13671875 8.1484375 C-1.13542969 7.25382812 -1.13414062 6.35921875 -1.1328125 5.4375 C-1.13112061 4.19806641 -1.13112061 4.19806641 -1.12939453 2.93359375 C-1 1 -1 1 0 0 Z " fill="#090645" transform="translate(266,14)"/>
<path d="M0 0 C3.53585465 0.05072962 5.19400731 0.2850526 8.4375 1.875 C10.25 4.3125 10.25 4.3125 10.125 7.9375 C9.25 11.3125 9.25 11.3125 8.25 13.3125 C8.79216107 15.547472 8.79216107 15.547472 9.6875 17.9375 C10.11869141 19.16339844 10.11869141 19.16339844 10.55859375 20.4140625 C10.90083984 21.35378906 10.90083984 21.35378906 11.25 22.3125 C9.6 22.6425 7.95 22.9725 6.25 23.3125 C5.98445313 22.74660156 5.71890625 22.18070313 5.4453125 21.59765625 C4.91550781 20.49744141 4.91550781 20.49744141 4.375 19.375 C4.02695313 18.64410156 3.67890625 17.91320312 3.3203125 17.16015625 C2.3815023 15.14917541 2.3815023 15.14917541 0.25 14.3125 C0.25 16.9525 0.25 19.5925 0.25 22.3125 C-1.40614657 22.69468767 -3.07457024 23.02645102 -4.75 23.3125 C-6.37200515 21.69049485 -5.8799075 19.89226969 -5.8828125 17.65625 C-5.88410156 16.71652344 -5.88539062 15.77679688 -5.88671875 14.80859375 C-5.88285156 13.81988281 -5.87898438 12.83117187 -5.875 11.8125 C-5.87886719 10.82378906 -5.88273437 9.83507812 -5.88671875 8.81640625 C-5.88542969 7.87667969 -5.88414063 6.93695312 -5.8828125 5.96875 C-5.88168457 5.10056641 -5.88055664 4.23238281 -5.87939453 3.33789062 C-5.63215885 -0.53204755 -3.38605505 0.09517019 0 0 Z M0.25 4.3125 C0.25 6.2925 0.25 8.2725 0.25 10.3125 C1.57 10.3125 2.89 10.3125 4.25 10.3125 C4.58 8.9925 4.91 7.6725 5.25 6.3125 C2.775 5.3225 2.775 5.3225 0.25 4.3125 Z " fill="#0B084F" transform="translate(113.75,11.6875)"/>
<path d="M0 0 C2.17061553 4.08075719 2.46104782 7.41295389 1.5625 11.9375 C0.23963173 14.8697564 -0.83245887 15.76663239 -3.4375 17.9375 C-7.38834232 19.3473772 -10.35857054 19.36907179 -14.25 17.8125 C-16.86601209 15.57020392 -18.17225573 14.17090202 -19.4375 10.9375 C-19.74031988 6.03894308 -19.14655968 2.85736121 -16.125 -1.0625 C-10.54058852 -5.2183411 -5.46033055 -4.6202797 0 0 Z M-12.1875 2 C-14.11549989 4.98839983 -13.74703037 7.4707598 -13.4375 10.9375 C-12.4475 12.4225 -12.4475 12.4225 -11.4375 13.9375 C-8.9375 14.35416667 -8.9375 14.35416667 -6.4375 13.9375 C-4.24810091 12.15642751 -4.24810091 12.15642751 -4.171875 9.84375 C-4.17703125 9.0496875 -4.1821875 8.255625 -4.1875 7.4375 C-4.18234375 6.6434375 -4.1771875 5.849375 -4.171875 5.03125 C-4.24810091 2.71857249 -4.24810091 2.71857249 -6.4375 0.9375 C-10.20885706 0.59151458 -10.20885706 0.59151458 -12.1875 2 Z " fill="#0E0B4E" transform="translate(261.4375,17.0625)"/>
<path d="M0 0 C1.2065625 0.0309375 1.2065625 0.0309375 2.4375 0.0625 C2.7675 2.0425 3.0975 4.0225 3.4375 6.0625 C3.953125 5.0725 4.46875 4.0825 5 3.0625 C5.804375 2.0725 6.60875 1.0825 7.4375 0.0625 C11.1875 -0.3125 11.1875 -0.3125 14.4375 0.0625 C12.78582443 3.6411304 10.65463508 6.81070188 8.4375 10.0625 C8.870625 10.76117188 9.30375 11.45984375 9.75 12.1796875 C10.306875 13.08976562 10.86375 13.99984375 11.4375 14.9375 C11.994375 15.84242187 12.55125 16.74734375 13.125 17.6796875 C14.4375 20.0625 14.4375 20.0625 14.4375 22.0625 C12.4575 22.0625 10.4775 22.0625 8.4375 22.0625 C7.4609375 20.27213542 6.484375 18.48177083 5.5078125 16.69140625 C4.52339976 14.89631685 4.52339976 14.89631685 2.4375 14.0625 C2.4375 16.7025 2.4375 19.3425 2.4375 22.0625 C0.4575 22.0625 -1.5225 22.0625 -3.5625 22.0625 C-3.59137814 18.58335059 -3.60925687 15.10423169 -3.625 11.625 C-3.63337891 10.63177734 -3.64175781 9.63855469 -3.65039062 8.61523438 C-3.65361328 7.67099609 -3.65683594 6.72675781 -3.66015625 5.75390625 C-3.66539307 4.87935791 -3.67062988 4.00480957 -3.67602539 3.10375977 C-3.50444536 0.01864008 -3.10895855 0.07582826 0 0 Z " fill="#0F095D" transform="translate(75.5625,11.9375)"/>
<path d="M0 0 C1.4540625 0.0309375 1.4540625 0.0309375 2.9375 0.0625 C3.9469696 3.14281416 4.94339621 6.2271959 5.9375 9.3125 C6.22367188 10.18519531 6.50984375 11.05789062 6.8046875 11.95703125 C7.07539063 12.80136719 7.34609375 13.64570313 7.625 14.515625 C7.87636719 15.29067383 8.12773437 16.06572266 8.38671875 16.86425781 C8.9375 19.0625 8.9375 19.0625 8.9375 23.0625 C7.2875 23.0625 5.6375 23.0625 3.9375 23.0625 C3.2775 21.4125 2.6175 19.7625 1.9375 18.0625 C0.2875 18.0625 -1.3625 18.0625 -3.0625 18.0625 C-4.0525 20.5375 -4.0525 20.5375 -5.0625 23.0625 C-6.7125 23.0625 -8.3625 23.0625 -10.0625 23.0625 C-9.46468212 17.83159357 -8.28083115 13.15593177 -6.5625 8.1875 C-6.33691406 7.51203125 -6.11132812 6.8365625 -5.87890625 6.140625 C-3.82150599 0.07798992 -3.82150599 0.07798992 0 0 Z M-1.0625 6.0625 C-1.3925 8.3725 -1.7225 10.6825 -2.0625 13.0625 C-1.0725 13.0625 -0.0825 13.0625 0.9375 13.0625 C0.6075 10.7525 0.2775 8.4425 -0.0625 6.0625 C-0.3925 6.0625 -0.7225 6.0625 -1.0625 6.0625 Z " fill="#080549" transform="translate(136.0625,11.9375)"/>
<path d="M0 0 C3.465 2.475 3.465 2.475 7 5 C6 9 6 9 5 10 C2.98035801 10.07244053 0.95832876 10.08377188 -1.0625 10.0625 C-2.71958984 10.04896484 -2.71958984 10.04896484 -4.41015625 10.03515625 C-5.26480469 10.02355469 -6.11945312 10.01195312 -7 10 C-7 13.63 -7 17.26 -7 21 C-8.32 21.33 -9.64 21.66 -11 22 C-15.50079715 16.13532492 -15.17437776 11.82673069 -14.359375 4.59765625 C-14.24078125 3.74042969 -14.1221875 2.88320313 -14 2 C-13.07316406 1.93941406 -12.14632812 1.87882812 -11.19140625 1.81640625 C-9.39509766 1.69072266 -9.39509766 1.69072266 -7.5625 1.5625 C-5.77005859 1.44068359 -5.77005859 1.44068359 -3.94140625 1.31640625 C-1.11429756 1.32343886 -1.11429756 1.32343886 0 0 Z " fill="#BA222F" transform="translate(45,31)"/>
<path d="M0 0 C1.134375 0.020625 2.26875 0.04125 3.4375 0.0625 C4.44196104 3.3528223 5.44030756 6.64496822 6.4375 9.9375 C6.72367188 10.87464844 7.00984375 11.81179687 7.3046875 12.77734375 C7.57539063 13.67324219 7.84609375 14.56914062 8.125 15.4921875 C8.37636719 16.31960449 8.62773437 17.14702148 8.88671875 17.99951172 C9.4375 20.0625 9.4375 20.0625 9.4375 22.0625 C7.4575 22.0625 5.4775 22.0625 3.4375 22.0625 C2.7775 20.4125 2.1175 18.7625 1.4375 17.0625 C0.1175 17.0625 -1.2025 17.0625 -2.5625 17.0625 C-3.5525 19.5375 -3.5525 19.5375 -4.5625 22.0625 C-6.5425 22.0625 -8.5225 22.0625 -10.5625 22.0625 C-4.67037172 0.08193635 -4.67037172 0.08193635 0 0 Z M-1.5625 6.0625 C-1.8925 8.0425 -2.2225 10.0225 -2.5625 12.0625 C-1.2425 11.7325 0.0775 11.4025 1.4375 11.0625 C1.1075 9.4125 0.7775 7.7625 0.4375 6.0625 C-0.2225 6.0625 -0.8825 6.0625 -1.5625 6.0625 Z " fill="#070549" transform="translate(172.5625,12.9375)"/>
<path d="M0 0 C4.62 0 9.24 0 14 0 C14 1.65 14 3.3 14 5 C11.36 5 8.72 5 6 5 C6 6.32 6 7.64 6 9 C8.31 9 10.62 9 13 9 C13.33 9.66 13.66 10.32 14 11 C13.67 11.99 13.34 12.98 13 14 C10.69 13.67 8.38 13.34 6 13 C6 14.65 6 16.3 6 18 C8.64 18 11.28 18 14 18 C14 19.32 14 20.64 14 22 C9.38 22 4.76 22 0 22 C0 14.74 0 7.48 0 0 Z " fill="#080742" transform="translate(91,12)"/>
<path d="M0 0 C6.75 -0.125 6.75 -0.125 9 1 C8.835 1.763125 8.67 2.52625 8.5 3.3125 C7.54156716 10.38094216 7.11612847 17.33104709 10 24 C7.69 26.31 5.38 28.62 3 31 C-0.54617696 25.68073456 -1.29995982 21.45826341 -1.1875 15.125 C-1.18685547 14.44308594 -1.18621094 13.76117188 -1.18554688 13.05859375 C-1.14749295 8.61896902 -0.71495367 4.38123606 0 0 Z " fill="#0A1D2A" transform="translate(10,19)"/>
<path d="M0 0 C1.65 0 3.3 0 5 0 C5.48108275 1.41601714 5.95978141 2.83284437 6.4375 4.25 C6.83775391 5.43335938 6.83775391 5.43335938 7.24609375 6.640625 C7.91954708 8.74821988 8.49150595 10.84753973 9 13 C9.27714844 12.14535156 9.55429688 11.29070313 9.83984375 10.41015625 C10.20207031 9.30542969 10.56429687 8.20070313 10.9375 7.0625 C11.29714844 5.96035156 11.65679687 4.85820312 12.02734375 3.72265625 C13 1 13 1 14 0 C15.66617115 -0.04063832 17.33388095 -0.042721 19 0 C15.25 18.75 15.25 18.75 12 22 C10.00041636 22.04080783 7.99954746 22.04254356 6 22 C0 6.57142857 0 6.57142857 0 0 Z " fill="#0D0B56" transform="translate(188,13)"/>
<path d="M0 0 C0.66 0.33 1.32 0.66 2 1 C1.67 2.65 1.34 4.3 1 6 C-1.31 6 -3.62 6 -6 6 C-5.443125 6.4125 -4.88625 6.825 -4.3125 7.25 C-3.549375 7.8275 -2.78625 8.405 -2 9 C-1.071875 9.5775 -0.14375 10.155 0.8125 10.75 C3 13 3 13 3.25 16.5625 C2 20 2 20 -1.125 22.0625 C-5.79449519 23.19221658 -7.61747558 22.6993462 -12 21 C-12 19.68 -12 18.36 -12 17 C-9.36 17 -6.72 17 -4 17 C-4 16.34 -4 15.68 -4 15 C-5.7015625 14.195625 -5.7015625 14.195625 -7.4375 13.375 C-10.3667927 11.69942081 -10.88414435 11.3089484 -12.125 8 C-11.98124125 4.54978992 -11.46292727 3.37496558 -9 1 C-5.77390955 -0.07536348 -3.37822416 -0.14375422 0 0 Z " fill="#0D0A48" transform="translate(229,13)"/>
<path d="M0 0 C0.02698189 1.62490954 0.04638757 3.24994633 0.0625 4.875 C0.07410156 5.77992187 0.08570313 6.68484375 0.09765625 7.6171875 C0 10 0 10 -1 12 C-1.66 12 -2.32 12 -3 12 C-3 10.35 -3 8.7 -3 7 C-3.66 7 -4.32 7 -5 7 C-6.98 3.535 -6.98 3.535 -9 0 C-9.66 0.66 -10.32 1.32 -11 2 C-12.98821313 2.39764263 -14.98944339 2.73775349 -17 3 C-17 6.63 -17 10.26 -17 14 C-15.35 14.33 -13.7 14.66 -12 15 C-12 16.32 -12 17.64 -12 19 C-14.64 19 -17.28 19 -20 19 C-20 11.74 -20 4.48 -20 -3 C-12.48927454 -4.50214509 -6.69533893 -3.94853321 0 0 Z " fill="#C40F18" transform="translate(186,44)"/>
<path d="M0 0 C1.32 0 2.64 0 4 0 C4 2.31 4 4.62 4 7 C5.98 6.67 7.96 6.34 10 6 C10.33 4.68 10.66 3.36 11 2 C12.32 2.33 13.64 2.66 15 3 C15 7.95 15 12.9 15 18 C14.01 18 13.02 18 12 18 C12 16.68 12 15.36 12 14 C9.69 13.67 7.38 13.34 5 13 C4.67 15.64 4.34 18.28 4 21 C2.35 21 0.7 21 -1 21 C-1.02687279 19.18757948 -1.04633715 17.37504767 -1.0625 15.5625 C-1.07410156 14.55316406 -1.08570313 13.54382813 -1.09765625 12.50390625 C-1 10 -1 10 0 9 C0.07179964 7.48071962 0.08392007 5.95832518 0.0625 4.4375 C0.05347656 3.61121094 0.04445312 2.78492188 0.03515625 1.93359375 C0.02355469 1.29550781 0.01195312 0.65742187 0 0 Z " fill="#DC0D16" transform="translate(192,42)"/>
<path d="M0 0 C1.65 0.33 3.3 0.66 5 1 C5 6.28 5 11.56 5 17 C7.64 17.33 10.28 17.66 13 18 C13 19.65 13 21.3 13 23 C8.38 23 3.76 23 -1 23 C-1.02682987 19.35411831 -1.04675569 15.70843154 -1.0625 12.0625 C-1.07087891 11.02158203 -1.07925781 9.98066406 -1.08789062 8.90820312 C-1.09272461 7.42416992 -1.09272461 7.42416992 -1.09765625 5.91015625 C-1.10289307 4.99371338 -1.10812988 4.07727051 -1.11352539 3.13305664 C-1 1 -1 1 0 0 Z " fill="#0B0A39" transform="translate(148,12)"/>
<path d="M0 0 C2.53309233 4.64203897 4.46515599 8.65155992 5 14 C4.49210937 13.73445313 3.98421875 13.46890625 3.4609375 13.1953125 C-0.62963294 11.09640557 -4.59793517 9.36953128 -9 8 C-10.67163195 7.34588315 -12.34015202 6.68346682 -14 6 C-9.32982245 -0.07123081 -7.37693425 -0.11898281 0 0 Z " fill="#C61218" transform="translate(28,9)"/>
<path d="M0 0 C1.86102349 3.41187641 1.52563341 5.0748136 0.5 8.75 C0.17 8.75 -0.16 8.75 -0.5 8.75 C-1.16 6.11 -1.82 3.47 -2.5 0.75 C-3.16 0.75 -3.82 0.75 -4.5 0.75 C-3.7265625 1.8946875 -3.7265625 1.8946875 -2.9375 3.0625 C-2.463125 3.949375 -1.98875 4.83625 -1.5 5.75 C-2.16666667 7.75 -2.83333333 9.75 -3.5 11.75 C-5.54698414 9.70301586 -5.20045693 5.44588759 -5.5 2.75 C-8.97147842 2.00042843 -8.97147842 2.00042843 -12.5 1.75 C-13.16 4.39 -13.82 7.03 -14.5 9.75 C-15.16 9.09 -15.82 8.43 -16.5 7.75 C-15.51 5.44 -14.52 3.13 -13.5 0.75 C-15.40963226 2.58324697 -16.45203 3.96968804 -16.6171875 6.65625 C-16.29650865 10.39285575 -15.87299407 12.29788598 -13.4375 15.25 C-12.798125 15.745 -12.15875 16.24 -11.5 16.75 C-12.82 16.75 -14.14 16.75 -15.5 16.75 C-17.9529456 14.16446275 -19.37340813 12.13764166 -19.703125 8.5234375 C-19.44828356 4.29023803 -18.82211171 2.16787465 -16.1875 -1.25 C-10.56053027 -5.43751236 -5.36547948 -4.82893153 0 0 Z " fill="#070446" transform="translate(261.5,17.25)"/>
<path d="M0 0 C1.98 0 3.96 0 6 0 C10 6.5 10 6.5 10 11 C9.01 11 8.02 11 7 11 C7 10.34 7 9.68 7 9 C6.01 9.495 6.01 9.495 5 10 C4.53101037 12.8159849 4.53101037 12.8159849 4.375 16.0625 C4.26285156 17.71958984 4.26285156 17.71958984 4.1484375 19.41015625 C4.09945312 20.26480469 4.05046875 21.11945312 4 22 C2.68 22 1.36 22 0 22 C0 14.74 0 7.48 0 0 Z " fill="#D61019" transform="translate(237,42)"/>
<path d="M0 0 C1.04671875 -0.01417969 2.0934375 -0.02835938 3.171875 -0.04296875 C6.27080677 0.18905787 8.45276014 0.87694133 11.25 2.1875 C10.375 6.0625 10.375 6.0625 9.25 7.1875 C7.23035801 7.25994053 5.20832876 7.27127188 3.1875 7.25 C1.53041016 7.23646484 1.53041016 7.23646484 -0.16015625 7.22265625 C-1.01480469 7.21105469 -1.86945312 7.19945312 -2.75 7.1875 C-3.08 8.5075 -3.41 9.8275 -3.75 11.1875 C-7.79878049 5.78912602 -7.79878049 5.78912602 -7.5625 2.875 C-5.84304884 -0.69616779 -3.76950768 0.0229848 0 0 Z " fill="#147043" transform="translate(30.75,23.8125)"/>
<path d="M0 0 C2.64 0 5.28 0 8 0 C8.70045456 1.91197039 9.384919 3.82980435 10.0625 5.75 C10.44535156 6.81734375 10.82820312 7.8846875 11.22265625 8.984375 C11.98010011 11.92280042 12.07151741 13.22348948 11 16 C10.34 14.68 9.68 13.36 9 12 C8.34 13.32 7.68 14.64 7 16 C5.02 16 3.04 16 1 16 C1 15.34 1 14.68 1 14 C2.32 13.67 3.64 13.34 5 13 C4.67 11.68 4.34 10.36 4 9 C3.01 10.32 2.02 11.64 1 13 C1.33 10.03 1.66 7.06 2 4 C0.08895362 5.91104638 -0.82338341 8.59560958 -2 11 C-3.13643966 7.59068103 -2.86747764 6.99664544 -1.5625 3.8125 C-1.13130859 2.73935547 -1.13130859 2.73935547 -0.69140625 1.64453125 C-0.46324219 1.10183594 -0.23507813 0.55914062 0 0 Z " fill="#C8141A" transform="translate(147,39)"/>
<path d="M0 0 C0.66 0 1.32 0 2 0 C1.67 2.97 1.34 5.94 1 9 C2.98 9 4.96 9 7 9 C6.67 6.03 6.34 3.06 6 0 C6.66 0 7.32 0 8 0 C12.40774487 11.52164009 12.40774487 11.52164009 13 17 C12.01 17 11.02 17 10 17 C9.67 15.35 9.34 13.7 9 12 C5.37 12 1.74 12 -2 12 C-2 13.98 -2 15.96 -2 18 C-3.32 18 -4.64 18 -6 18 C-5.32829194 14.1936543 -4.27253436 10.64793184 -3 7 C-2.34 7 -1.68 7 -1 7 C-0.67 4.69 -0.34 2.38 0 0 Z " fill="#D60E15" transform="translate(218,46)"/>
<path d="M0 0 C1.65 0 3.3 0 5 0 C5 7.26 5 14.52 5 22 C3.02 22 1.04 22 -1 22 C-1.14715692 14.6094524 -0.70776992 7.35575165 0 0 Z " fill="#11095A" transform="translate(209,13)"/>
<path d="M0 0 C0.99 0 1.98 0 3 0 C4.54631384 3.09262767 4.39060716 6.3670891 4.62109375 9.78515625 C4.74613281 10.51605469 4.87117187 11.24695313 5 12 C5.66 12.33 6.32 12.66 7 13 C7 12.01 7 11.02 7 10 C7.66 10 8.32 10 9 10 C9 8.02 9 6.04 9 4 C9.33 4 9.66 4 10 4 C10.31464883 9.24414718 9.83856733 12.53939419 7 17 C3.78312814 20.33176015 0.54371224 20.76085725 -4 21 C-6.9375 20.0625 -6.9375 20.0625 -9 19 C-6.04335481 17.5216774 -3.25770263 17.93967217 0 18 C-0.928125 17.71125 -1.85625 17.4225 -2.8125 17.125 C-6 16 -6 16 -9 14 C-9.29296875 11.6171875 -9.29296875 11.6171875 -9.1875 8.875 C-9.16042969 7.96492188 -9.13335937 7.05484375 -9.10546875 6.1171875 C-9.07066406 5.41851562 -9.03585938 4.71984375 -9 4 C-8.67 4 -8.34 4 -8 4 C-7.86722656 4.63808594 -7.73445313 5.27617188 -7.59765625 5.93359375 C-7.42105469 6.75988281 -7.24445313 7.58617187 -7.0625 8.4375 C-6.80146484 9.67306641 -6.80146484 9.67306641 -6.53515625 10.93359375 C-6.19247006 12.97661204 -6.19247006 12.97661204 -5 14 C-2.54190002 14.2500773 -2.54190002 14.2500773 0 14 C2.18429262 12.22290968 2.18429262 12.22290968 2.265625 9.94140625 C2.26046875 9.15636719 2.2553125 8.37132812 2.25 7.5625 C2.25515625 6.78003906 2.2603125 5.99757813 2.265625 5.19140625 C2.13176831 2.70955893 2.13176831 2.70955893 0 0 Z " fill="#BD1921" transform="translate(129,44)"/>
<path d="M0 0 C0.99 0.66 1.98 1.32 3 2 C3 2.99 3 3.98 3 5 C-0.88501735 6.94250868 -5.74294555 6.65349557 -10 7 C-10.33 11.29 -10.66 15.58 -11 20 C-14 18 -14 18 -14.546875 16.08203125 C-14.98702762 11.16417222 -14.9296945 6.85507126 -14 2 C-13.07316406 1.93941406 -12.14632812 1.87882812 -11.19140625 1.81640625 C-9.39509766 1.69072266 -9.39509766 1.69072266 -7.5625 1.5625 C-5.77005859 1.44068359 -5.77005859 1.44068359 -3.94140625 1.31640625 C-1.11429756 1.32343886 -1.11429756 1.32343886 0 0 Z " fill="#59336C" transform="translate(45,31)"/>
<path d="M0 0 C1.65 0 3.3 0 5 0 C5 7.26 5 14.52 5 22 C3.35 22.33 1.7 22.66 0 23 C-0.99290126 20.02129623 -1.05524548 18.40817115 -0.87890625 15.33203125 C-0.83056641 14.43935547 -0.78222656 13.54667969 -0.73242188 12.62695312 C-0.67634766 11.69818359 -0.62027344 10.76941406 -0.5625 9.8125 C-0.51029297 8.87212891 -0.45808594 7.93175781 -0.40429688 6.96289062 C-0.27468082 4.64158499 -0.13971819 2.32071591 0 0 Z " fill="#0D0B4B" transform="translate(235,13)"/>
<path d="M0 0 C2.05078125 0.03255208 4.1015625 0.06510417 6.15234375 0.09765625 C6.15234375 0.42765625 6.15234375 0.75765625 6.15234375 1.09765625 C4.17234375 1.42765625 2.19234375 1.75765625 0.15234375 2.09765625 C-0.17765625 3.74765625 -0.50765625 5.39765625 -0.84765625 7.09765625 C2.12234375 7.09765625 5.09234375 7.09765625 8.15234375 7.09765625 C8.48234375 7.75765625 8.81234375 8.41765625 9.15234375 9.09765625 C8.82234375 10.08765625 8.49234375 11.07765625 8.15234375 12.09765625 C5.84234375 11.76765625 3.53234375 11.43765625 1.15234375 11.09765625 C1.15234375 12.74765625 1.15234375 14.39765625 1.15234375 16.09765625 C3.79234375 16.09765625 6.43234375 16.09765625 9.15234375 16.09765625 C9.15234375 17.41765625 9.15234375 18.73765625 9.15234375 20.09765625 C5.52234375 20.09765625 1.89234375 20.09765625 -1.84765625 20.09765625 C-1.84765625 19.76765625 -1.84765625 19.43765625 -1.84765625 19.09765625 C1.45234375 19.09765625 4.75234375 19.09765625 8.15234375 19.09765625 C8.15234375 18.43765625 8.15234375 17.77765625 8.15234375 17.09765625 C4.52234375 17.42765625 0.89234375 17.75765625 -2.84765625 18.09765625 C-2.87449937 15.28509344 -2.89441813 12.47278384 -2.91015625 9.66015625 C-2.91853516 8.85771484 -2.92691406 8.05527344 -2.93554688 7.22851562 C-2.94417055 5.18470404 -2.89993775 3.14081723 -2.84765625 1.09765625 C-1.84765625 0.09765625 -1.84765625 0.09765625 0 0 Z " fill="#120E59" transform="translate(95.84765625,13.90234375)"/>
<path d="M0 0 C3.875 0.8125 3.875 0.8125 5.89453125 3.3125 C11.52645257 12.67227148 11.52645257 12.67227148 10.875 17.8125 C9.375 20.125 9.375 20.125 7.875 21.8125 C4.875 16.0625 4.875 16.0625 4.875 13.8125 C5.535 13.8125 6.195 13.8125 6.875 13.8125 C6.36417741 12.15683384 5.81511979 10.5129285 5.25 8.875 C4.79753906 7.50021484 4.79753906 7.50021484 4.3359375 6.09765625 C3.85382813 5.34355469 3.37171875 4.58945312 2.875 3.8125 C-0.095 3.3175 -0.095 3.3175 -3.125 2.8125 C-3.125 10.0725 -3.125 17.3325 -3.125 24.8125 C-1.805 24.8125 -0.485 24.8125 0.875 24.8125 C0.875 20.8525 0.875 16.8925 0.875 12.8125 C1.205 12.8125 1.535 12.8125 1.875 12.8125 C2.06897476 14.79104258 2.25501321 16.7703648 2.4375 18.75 C2.54191406 19.85214844 2.64632812 20.95429687 2.75390625 22.08984375 C2.79386719 22.98832031 2.83382812 23.88679688 2.875 24.8125 C1.875 25.8125 1.875 25.8125 -1.1875 25.875 C-2.156875 25.854375 -3.12625 25.83375 -4.125 25.8125 C-4.15386984 21.83334841 -4.17175406 17.85422347 -4.1875 13.875 C-4.19587891 12.73869141 -4.20425781 11.60238281 -4.21289062 10.43164062 C-4.21611328 9.35205078 -4.21933594 8.27246094 -4.22265625 7.16015625 C-4.22789307 6.15992432 -4.23312988 5.15969238 -4.23852539 4.12915039 C-4.06472683 0.58253855 -3.55176404 0.92345865 0 0 Z " fill="#B21D26" transform="translate(240.125,39.1875)"/>
<path d="M0 0 C2.4750171 1.11431765 4.67883419 2.58150978 7 4 C6.979375 5.093125 6.95875 6.18625 6.9375 7.3125 C6.81455548 10.94384191 6.81455548 10.94384191 8 14 C5.5332355 14.88336837 4.36140628 15.1312406 1.859375 14.22265625 C1.16328125 13.83980469 0.4671875 13.45695312 -0.25 13.0625 C-0.95640625 12.68222656 -1.6628125 12.30195312 -2.390625 11.91015625 C-2.92171875 11.60980469 -3.4528125 11.30945313 -4 11 C-3.34 10.67 -2.68 10.34 -2 10 C-2.185625 9.071875 -2.37125 8.14375 -2.5625 7.1875 C-3 4 -3 4 -2 1 C-1.34 0.67 -0.68 0.34 0 0 Z " fill="#94989F" transform="translate(28,53)"/>
<path d="M0 0 C6.81520452 0.29631324 11.38350782 3.30464197 17 7 C15.25 11.875 15.25 11.875 13 13 C10.46875 11.92578125 10.46875 11.92578125 7.5 10.3125 C6.5203125 9.79300781 5.540625 9.27351563 4.53125 8.73828125 C1.91118628 6.9390091 0.98588091 5.97524775 0 3 C0 2.01 0 1.02 0 0 Z " fill="#03040A" transform="translate(33,8)"/>
<path d="M0 0 C2.31 0 4.62 0 7 0 C8.00446104 3.2903223 9.00280756 6.58246822 10 9.875 C10.28617188 10.81214844 10.57234375 11.74929687 10.8671875 12.71484375 C11.13789063 13.61074219 11.40859375 14.50664062 11.6875 15.4296875 C11.93886719 16.25710449 12.19023437 17.08452148 12.44921875 17.93701172 C13 20 13 20 13 22 C11.02 22 9.04 22 7 22 C6.773125 21.195625 6.54625 20.39125 6.3125 19.5625 C5.879375 18.716875 5.44625 17.87125 5 17 C2.45224694 16.10613836 2.45224694 16.10613836 0 16 C0.99 15.34 1.98 14.68 3 14 C4.75 12.75 4.75 12.75 6 11 C6.25069913 8.37429296 6.25069913 8.37429296 6 6 C2.95086772 4.98888907 2.95086772 4.98888907 0 6 C0.33 4.68 0.66 3.36 1 2 C2.65 1.67 4.3 1.34 6 1 C4.02 1 2.04 1 0 1 C0 0.67 0 0.34 0 0 Z " fill="#0E0B4E" transform="translate(169,13)"/>
<path d="M0 0 C2.02045442 0.60183749 4.02111039 1.27306096 6 2 C6.33 2.66 6.66 3.32 7 4 C6.34 4 5.68 4 5 4 C5.01160156 4.63808594 5.02320313 5.27617188 5.03515625 5.93359375 C5.04417969 6.75988281 5.05320312 7.58617187 5.0625 8.4375 C5.07410156 9.26121094 5.08570313 10.08492187 5.09765625 10.93359375 C5 13 5 13 4 14 C10.45791576 17.45423401 16.76340555 17.68441919 24 18 C20.21911152 20.52059232 17.37067807 20.59794293 13 20 C3.2 17.2 3.2 17.2 0 14 C-0.04165365 12.33385392 -0.04165365 10.66614608 0 9 C-0.33 8.34 -0.66 7.68 -1 7 C-0.71758117 4.6599583 -0.38749213 2.32495277 0 0 Z " fill="#1C2228" transform="translate(21,50)"/>
<path d="M0 0 C2.19119449 2.85807977 1.7000433 5.39630134 1.4375 8.875 C1.1075 8.875 0.7775 8.875 0.4375 8.875 C0.251875 7.76125 0.06625 6.6475 -0.125 5.5 C-0.599375 4.30375 -1.07375 3.1075 -1.5625 1.875 C-5.07650668 0.33413678 -5.07650668 0.33413678 -8.5625 -0.125 C-8.5625 0.535 -8.5625 1.195 -8.5625 1.875 C-7.2425 2.205 -5.9225 2.535 -4.5625 2.875 C-4.8925 3.535 -5.2225 4.195 -5.5625 4.875 C-6.8825 4.545 -8.2025 4.215 -9.5625 3.875 C-9.8925 5.855 -10.2225 7.835 -10.5625 9.875 C-10.8925 9.875 -11.2225 9.875 -11.5625 9.875 C-11.6875 3.125 -11.6875 3.125 -10.5625 0.875 C-11.8825 0.875 -13.2025 0.875 -14.5625 0.875 C-14.8925 8.135 -15.2225 15.395 -15.5625 22.875 C-14.2425 22.875 -12.9225 22.875 -11.5625 22.875 C-11.5625 19.905 -11.5625 16.935 -11.5625 13.875 C-10.5725 13.875 -9.5825 13.875 -8.5625 13.875 C-8.8925 14.205 -9.2225 14.535 -9.5625 14.875 C-9.79442865 16.38969448 -9.97465238 17.91254562 -10.125 19.4375 C-10.25068359 20.67693359 -10.25068359 20.67693359 -10.37890625 21.94140625 C-10.43949219 22.57949219 -10.50007813 23.21757813 -10.5625 23.875 C-12.5425 23.875 -14.5225 23.875 -16.5625 23.875 C-16.5625 15.625 -16.5625 7.375 -16.5625 -1.125 C-10.66288939 -2.30492212 -5.57768412 -2.44873937 0 0 Z " fill="#BD2228" transform="translate(110.5625,40.125)"/>
<path d="M0 0 C1.65 0 3.3 0 5 0 C6.49821059 3.37097383 7 5.20442119 7 9 C6.34 9 5.68 9 5 9 C4.67 6.69 4.34 4.38 4 2 C3.34 2 2.68 2 2 2 C2.680625 3.670625 2.680625 3.670625 3.375 5.375 C5.1782873 10.143883 6.12719707 14.98908437 7 20 C8.32 20 9.64 20 11 20 C12.485 14.555 12.485 14.555 14 9 C14.66 9 15.32 9 16 9 C15.71517632 10.41805831 15.42181856 11.83440379 15.125 13.25 C14.96257812 14.03890625 14.80015625 14.8278125 14.6328125 15.640625 C14.00849925 17.96831144 13.15161458 19.89031952 12 22 C10.02 22 8.04 22 6 22 C0 6.57142857 0 6.57142857 0 0 Z " fill="#0A0846" transform="translate(188,13)"/>
<path d="M0 0 C2.97 0.33 5.94 0.66 9 1 C9 4.63 9 8.26 9 12 C6.36 12 3.72 12 1 12 C0.83126522 10.56274129 0.66509263 9.12518162 0.5 7.6875 C0.4071875 6.88699219 0.314375 6.08648437 0.21875 5.26171875 C0 3 0 3 0 0 Z " fill="#B5BBBF" transform="translate(34,56)"/>
<path d="M0 0 C1.37478516 0.01740234 1.37478516 0.01740234 2.77734375 0.03515625 C3.69644531 0.04417969 4.61554688 0.05320312 5.5625 0.0625 C6.27277344 0.07410156 6.98304687 0.08570313 7.71484375 0.09765625 C7.71484375 0.42765625 7.71484375 0.75765625 7.71484375 1.09765625 C4.74484375 1.09765625 1.77484375 1.09765625 -1.28515625 1.09765625 C-1.14497799 4.07718984 -0.99829283 7.05614929 -0.84765625 10.03515625 C-0.80833984 10.88529297 -0.76902344 11.73542969 -0.72851562 12.61132812 C-0.68662109 13.42021484 -0.64472656 14.22910156 -0.6015625 15.0625 C-0.56490479 15.81136475 -0.52824707 16.56022949 -0.49047852 17.33178711 C-0.46744562 19.12226951 -0.46744562 19.12226951 0.71484375 20.09765625 C0.67359375 19.19015625 0.63234375 18.28265625 0.58984375 17.34765625 C0.71015931 14.21945165 1.10631455 12.71151619 2.71484375 10.09765625 C4.03484375 10.42765625 5.35484375 10.75765625 6.71484375 11.09765625 C6.71484375 14.09765625 6.71484375 14.09765625 5.71484375 16.09765625 C4.72484375 15.43765625 3.73484375 14.77765625 2.71484375 14.09765625 C2.71484375 16.73765625 2.71484375 19.37765625 2.71484375 22.09765625 C1.05869718 22.47984392 -0.60972649 22.81160727 -2.28515625 23.09765625 C-3.9071614 21.4756511 -3.41506375 19.67742594 -3.41796875 17.44140625 C-3.41925781 16.50167969 -3.42054687 15.56195313 -3.421875 14.59375 C-3.41800781 13.60503906 -3.41414063 12.61632812 -3.41015625 11.59765625 C-3.41402344 10.60894531 -3.41789062 9.62023437 -3.421875 8.6015625 C-3.42058594 7.66183594 -3.41929688 6.72210937 -3.41796875 5.75390625 C-3.41684082 4.88572266 -3.41571289 4.01753906 -3.41455078 3.12304688 C-3.22874376 0.21464116 -2.91798065 0.12470003 0 0 Z " fill="#080545" transform="translate(111.28515625,11.90234375)"/>
<path d="M0 0 C2.33722838 3.50584257 3.41233172 7.07550049 4.625 11.0625 C4.96917969 12.16174805 4.96917969 12.16174805 5.3203125 13.28320312 C7 18.72719029 7 18.72719029 7 21 C4.69 21 2.38 21 0 21 C-0.66 19.35 -1.32 17.7 -2 16 C-3.98 16 -5.96 16 -8 16 C-8.99 18.475 -8.99 18.475 -10 21 C-11.98 21 -13.96 21 -16 21 C-15.67 19.68 -15.34 18.36 -15 17 C-15 17.99 -15 18.98 -15 20 C-13.68 20 -12.36 20 -11 20 C-11 18.02 -11 16.04 -11 14 C-7.37 14 -3.74 14 0 14 C0.33 15.65 0.66 17.3 1 19 C1.66 18.67 2.32 18.34 3 18 C2.7834375 17.45472656 2.566875 16.90945312 2.34375 16.34765625 C0.23652196 10.6405803 -0.28922492 6.0737233 0 0 Z " fill="#B61F29" transform="translate(227,44)"/>
<path d="M0 0 C1.9375 0.5625 1.9375 0.5625 4 2 C5 5.375 5 5.375 5 9 C3.15863826 11.41281883 1.69698174 12.65150913 -1 14 C-3.3329866 14.04022391 -5.66706666 14.04320247 -8 14 C-9.3271261 10.0186217 -9.06915913 6.14954773 -9 2 C-6.36 2 -3.72 2 -1 2 C-1 4.64 -1 7.28 -1 10 C-0.67 9.67 -0.34 9.34 0 9 C0.66 8.67 1.32 8.34 2 8 C1.47731534 5.23723823 0.89130413 2.6739124 0 0 Z M-8 3 C-8 4.98 -8 6.96 -8 9 C-6.35 9 -4.7 9 -3 9 C-2.61781233 7.34385343 -2.28604898 5.67542976 -2 4 C-3.06645115 2.70366379 -3.06645115 2.70366379 -5.5625 2.9375 C-6.366875 2.958125 -7.17125 2.97875 -8 3 Z " fill="#C11B21" transform="translate(86,50)"/>
<path d="M0 0 C1.32 0 2.64 0 4 0 C4.10331031 7.42686315 3.99862699 14.63512596 3 22 C1.68 22 0.36 22 -1 22 C-1.02700675 19.08327116 -1.04684237 16.16679323 -1.0625 13.25 C-1.07087891 12.425 -1.07925781 11.6 -1.08789062 10.75 C-1.09111328 9.95078125 -1.09433594 9.1515625 -1.09765625 8.328125 C-1.10289307 7.5949707 -1.10812988 6.86181641 -1.11352539 6.10644531 C-0.9975109 3.9538151 -0.59073271 2.0685865 0 0 Z " fill="#D60C14" transform="translate(96,41)"/>
<path d="M0 0 C1.32 0.33 2.64 0.66 4 1 C4 5.95 4 10.9 4 16 C3.01 16 2.02 16 1 16 C1 14.68 1 13.36 1 12 C-1.31 11.67 -3.62 11.34 -6 11 C-6.33 12.65 -6.66 14.3 -7 16 C-7.33 16 -7.66 16 -8 16 C-8 14.02 -8 12.04 -8 10 C-7.0409375 9.5978125 -7.0409375 9.5978125 -6.0625 9.1875 C-3.66868314 8.11332248 -3.66868314 8.11332248 -3 5 C-2.34 4.67 -1.68 4.34 -1 4 C-0.34786708 1.97536745 -0.34786708 1.97536745 0 0 Z " fill="#DB101B" transform="translate(203,44)"/>
<path d="M0 0 C3.75 -0.375 3.75 -0.375 7 0 C5.34832443 3.5786304 3.21713508 6.74820188 1 10 C1.433125 10.69867188 1.86625 11.39734375 2.3125 12.1171875 C2.869375 13.02726562 3.42625 13.93734375 4 14.875 C4.556875 15.77992187 5.11375 16.68484375 5.6875 17.6171875 C7 20 7 20 7 22 C5.02 22 3.04 22 1 22 C-0.32 19.36 -1.64 16.72 -3 14 C-2.34 14 -1.68 14 -1 14 C0.625 16 0.625 16 2 18 C1.29875 16.948125 0.5975 15.89625 -0.125 14.8125 C-2.0802811 11.39248536 -2.0802811 11.39248536 -1.4375 8.25 C-0.11564884 6.18101558 1.14670894 4.60056955 3 3 C2.34 2.67 1.68 2.34 1 2 C0.34 3.32 -0.32 4.64 -1 6 C-1.99 6 -2.98 6 -4 6 C-2.4375 3 -2.4375 3 0 0 Z " fill="#08063D" transform="translate(83,12)"/>
<path d="M0 0 C5.57142857 5.14285714 5.57142857 5.14285714 6 9 C4.68 8.34 3.36 7.68 2 7 C2 9.31 2 11.62 2 14 C1.01 13.67 0.02 13.34 -1 13 C-1.33 12.34 -1.66 11.68 -2 11 C-2.99 11 -3.98 11 -5 11 C-5.66 9.68 -6.32 8.36 -7 7 C-4.69 4.69 -2.38 2.38 0 0 Z " fill="#0E1623" transform="translate(19,43)"/>
<path d="M0 0 C0.33 0.66 0.66 1.32 1 2 C2.175625 2.185625 2.175625 2.185625 3.375 2.375 C6 3 6 3 7.875 4.75 C9 7 9 7 9 9.5 C7.70098742 12.74753145 5.8359638 14.03664044 3 16 C0.54970669 10.28264895 -0.33266291 6.20970773 0 0 Z " fill="#C0C9D0" transform="translate(9,34)"/>
<path d="M0 0 C0.94875 0.04125 1.8975 0.0825 2.875 0.125 C2.875 0.785 2.875 1.445 2.875 2.125 C3.49375 2.269375 4.1125 2.41375 4.75 2.5625 C6.875 3.125 6.875 3.125 8.875 4.125 C8.875 7.095 8.875 10.065 8.875 13.125 C8.215 13.125 7.555 13.125 6.875 13.125 C6.875 14.115 6.875 15.105 6.875 16.125 C5.885 15.795 4.895 15.465 3.875 15.125 C3.545 11.165 3.215 7.205 2.875 3.125 C0.235 2.795 -2.405 2.465 -5.125 2.125 C-3.125 0.125 -3.125 0.125 0 0 Z " fill="#DF0B14" transform="translate(129.125,40.875)"/>
<path d="M0 0 C0.66 0.33 1.32 0.66 2 1 C1.67 2.65 1.34 4.3 1 6 C-3.455 5.01 -3.455 5.01 -8 4 C-8.33 5.65 -8.66 7.3 -9 9 C-5.535 10.98 -5.535 10.98 -2 13 C-2.66 13.66 -3.32 14.32 -4 15 C-10.68508287 11.83977901 -10.68508287 11.83977901 -12.125 8 C-11.98124125 4.54978992 -11.46292727 3.37496558 -9 1 C-5.77390955 -0.07536348 -3.37822416 -0.14375422 0 0 Z " fill="#0A0743" transform="translate(229,13)"/>
<path d="M0 0 C1.32 0.33 2.64 0.66 4 1 C4 2.98 4 4.96 4 7 C3.67 5.68 3.34 4.36 3 3 C2.17361624 5.89234315 2 7.88742431 2 11 C2.66 11.33 3.32 11.66 4 12 C4.4140625 14.50390625 4.4140625 14.50390625 4.625 17.5625 C4.69976562 18.57441406 4.77453125 19.58632813 4.8515625 20.62890625 C4.92503906 21.80259766 4.92503906 21.80259766 5 23 C1.125 22.125 1.125 22.125 0 21 C-0.08685603 19.43827255 -0.10702219 17.87270656 -0.09765625 16.30859375 C-0.09443359 15.36435547 -0.09121094 14.42011719 -0.08789062 13.44726562 C-0.07951172 12.45404297 -0.07113281 11.46082031 -0.0625 10.4375 C-0.05798828 9.44041016 -0.05347656 8.44332031 -0.04882812 7.41601562 C-0.03700007 4.94395151 -0.02051849 2.47200482 0 0 Z " fill="#D30C14" transform="translate(73,42)"/>
<path d="M0 0 C3.90265972 7.3277788 4.28562084 13.90058869 3 22 C2.34 21.01 1.68 20.02 1 19 C-0.98 19.66 -2.96 20.32 -5 21 C-4.71125 20.47792969 -4.4225 19.95585938 -4.125 19.41796875 C-1.29508963 13.80727839 -0.63514326 9.45126632 -0.95703125 3.1875 C-0.97121094 2.465625 -0.98539063 1.74375 -1 1 C-0.67 0.67 -0.34 0.34 0 0 Z M1 11 C2 14 2 14 2 14 Z " fill="#101521" transform="translate(55,32)"/>
<path d="M0 0 C0.66 0 1.32 0 2 0 C2.33 4.95 2.66 9.9 3 15 C5.64 15 8.28 15 11 15 C11 16.32 11 17.64 11 19 C7.37 18.67 3.74 18.34 0 18 C0 12.06 0 6.12 0 0 Z " fill="#0B0A55" transform="translate(149,15)"/>
<path d="M0 0 C0.33 0 0.66 0 1 0 C1 2.64 1 5.28 1 8 C1.99 7.67 2.98 7.34 4 7 C5.39439664 6.93334624 6.79169875 6.91461801 8.1875 6.9375 C10.0746875 6.9684375 10.0746875 6.9684375 12 7 C11.67 7.99 11.34 8.98 11 10 C11 9.34 11 8.68 11 8 C8.05272465 8.10169161 8.05272465 8.10169161 5 9 C4.29788106 10.65204456 3.63028587 12.31923769 3 14 C0.5 14.875 0.5 14.875 -2 15 C-2.66 14.67 -3.32 14.34 -4 14 C-3.52188823 12.22888156 -3.0424722 10.45811517 -2.5625 8.6875 C-2.29566406 7.70136719 -2.02882812 6.71523438 -1.75390625 5.69921875 C-1.21920575 3.78482474 -0.62855462 1.88566385 0 0 Z " fill="#BD1B23" transform="translate(143,50)"/>
<path d="M0 0 C7.24539726 -0.53449652 11.72912263 0.28392452 18 4 C18 4.66 18 5.32 18 6 C14.7 5.01 11.4 4.02 8 3 C8 4.32 8 5.64 8 7 C9.98 7 11.96 7 14 7 C14 7.33 14 7.66 14 8 C11.69 8 9.38 8 7 8 C6.67 7.34 6.34 6.68 6 6 C5.01 6.99 4.02 7.98 3 9 C3.875 4.25 3.875 4.25 5 2 C3.35 2 1.7 2 0 2 C0 1.34 0 0.68 0 0 Z " fill="#B41922" transform="translate(264,40)"/>
<path d="M0 0 C0.99 0.33 1.98 0.66 3 1 C2.67 1.99 2.34 2.98 2 4 C2.639375 4.268125 3.27875 4.53625 3.9375 4.8125 C6 6 6 6 7 9 C7.66 9.33 8.32 9.66 9 10 C9 11.65 9 13.3 9 15 C7.02 15.99 7.02 15.99 5 17 C5 14.69 5 12.38 5 10 C3.5459375 9.4121875 3.5459375 9.4121875 2.0625 8.8125 C-1 7 -1 7 -2 4.4375 C-2 2 -2 2 0 0 Z " fill="#100C5C" transform="translate(221,16)"/>
<path d="M0 0 C0.33 0 0.66 0 1 0 C1.02578125 0.74765625 1.0515625 1.4953125 1.078125 2.265625 C1.32269112 8.21584175 1.32269112 8.21584175 3.625 13.5625 C6.63671558 15.38538048 9.58280736 16.21141708 13 17 C13 17.33 13 17.66 13 18 C4.84375 18.62740385 4.84375 18.62740385 1.5625 16.1875 C-2.28429204 10.80199115 -2.28429204 10.80199115 -1.6875 6.4375 C-1.58824219 5.65246094 -1.48898438 4.86742187 -1.38671875 4.05859375 C-1 2 -1 2 0 0 Z " fill="#E01016" transform="translate(118,45)"/>
<path d="M0 0 C0.66 0 1.32 0 2 0 C2.33 1.65 2.66 3.3 3 5 C3.99 4.67 4.98 4.34 6 4 C6 4.66 6 5.32 6 6 C6.66 6 7.32 6 8 6 C8 5.01 8 4.02 8 3 C10.31 3 12.62 3 15 3 C14.67 3.99 14.34 4.98 14 6 C13.01 6 12.02 6 11 6 C11 6.66 11 7.32 11 8 C9.35425434 8.02688151 7.70838587 8.04634123 6.0625 8.0625 C5.14597656 8.07410156 4.22945313 8.08570312 3.28515625 8.09765625 C1 8 1 8 0 7 C-0.04092937 4.66702567 -0.04241723 2.33294775 0 0 Z " fill="#D50E12" transform="translate(264,56)"/>
<path d="M0 0 C0.33 0.66 0.66 1.32 1 2 C2.65 2 4.3 2 6 2 C7.88695626 6.28853694 9.58192622 10.52761347 11 15 C10.01 15.495 10.01 15.495 9 16 C8.608125 15.05125 8.21625 14.1025 7.8125 13.125 C5.76459528 9.59412979 4.75702252 9.18642816 1 8 C-0.35439668 5.29120665 -0.06501451 2.99066732 0 0 Z " fill="#6C7A84" transform="translate(9,28)"/>
<path d="M0 0 C2.64 0 5.28 0 8 0 C8.33 1.32 8.66 2.64 9 4 C8.67 3.34 8.34 2.68 8 2 C6.02 2.33 4.04 2.66 2 3 C1.01 6.3 0.02 9.6 -1 13 C-1.66 13 -2.32 13 -3 13 C-2.938125 13.763125 -2.87625 14.52625 -2.8125 15.3125 C-3.03403312 18.48780806 -3.71775032 18.95735659 -6 21 C-4.55613874 13.78069368 -2.42211826 6.94889267 0 0 Z " fill="#B51D25" transform="translate(218,40)"/>
<path d="M0 0 C2.94263938 -0.25222623 4.99663784 -0.00112072 7.8125 0.9375 C10.39943525 3.37661038 10.38268498 4.06434578 10.5 7.5 C10.44546013 11.59049045 10.13485095 11.86514905 7 15 C6.67 11.7 6.34 8.4 6 5 C3.03 4.505 3.03 4.505 0 4 C0 2.68 0 1.36 0 0 Z " fill="#D80C15" transform="translate(272,43)"/>
<path d="M0 0 C4.62 0 9.24 0 14 0 C14 1.32 14 2.64 14 4 C9.05 4 4.1 4 -1 4 C-0.67 2.68 -0.34 1.36 0 0 Z " fill="#0A9D4E" transform="translate(26,25)"/>
<path d="M0 0 C1.66611905 -0.042721 3.33382885 -0.04063832 5 0 C6 1 6 1 6.11352539 3.31665039 C6.10828857 4.31688232 6.10305176 5.31711426 6.09765625 6.34765625 C6.09282227 7.96704102 6.09282227 7.96704102 6.08789062 9.61914062 C6.07951172 10.75544922 6.07113281 11.89175781 6.0625 13.0625 C6.05798828 14.20267578 6.05347656 15.34285156 6.04882812 16.51757812 C6.03699747 19.34510351 6.0205141 22.1725264 6 25 C5.67 25 5.34 25 5 25 C4.34 18.07 3.68 11.14 3 4 C2.67 4 2.34 4 2 4 C1.67 5.65 1.34 7.3 1 9 C0.67 9 0.34 9 0 9 C0 6.03 0 3.06 0 0 Z " fill="#B01C25" transform="translate(252,40)"/>
<path d="M0 0 C0.99 0 1.98 0 3 0 C3 2 3 4 3 6 C3.556875 6.7734375 3.556875 6.7734375 4.125 7.5625 C5.49670248 11.3836712 4.15124507 14.16251643 3 18 C2.01 17.67 1.02 17.34 0 17 C-0.19436491 14.54203147 -0.3807742 12.08390706 -0.5625 9.625 C-0.61857422 8.92632812 -0.67464844 8.22765625 -0.73242188 7.5078125 C-1.11328125 2.2265625 -1.11328125 2.2265625 0 0 Z " fill="#100B5F" transform="translate(73,14)"/>
<path d="M0 0 C2 2 2 2 2.23046875 4.09375 C2.20919922 5.28484375 2.20919922 5.28484375 2.1875 6.5 C2.17783203 7.69109375 2.17783203 7.69109375 2.16796875 8.90625 C2 11 2 11 1 13 C-2.69571901 14.56357343 -6.15558369 13.66537975 -10 13 C-10.33 13.99 -10.66 14.98 -11 16 C-11 14.68 -11 13.36 -11 12 C-8.69 12 -6.38 12 -4 12 C-4 8.7 -4 5.4 -4 2 C-3.67 2 -3.34 2 -3 2 C-2.67 3.98 -2.34 5.96 -2 8 C-1.67 8 -1.34 8 -1 8 C-0.67 5.36 -0.34 2.72 0 0 Z " fill="#C01F23" transform="translate(282,46)"/>
<path d="M0 0 C2.40201504 4.19879794 2.15864149 7.24075541 2 12 C2.33 11.01 2.66 10.02 3 9 C3.33 8.01 3.66 7.02 4 6 C4.66 6 5.32 6 6 6 C6 9.63 6 13.26 6 17 C4.35 17.33 2.7 17.66 1 18 C0 17 0 17 -0.09765625 13.18359375 C-0.09098089 11.60153318 -0.07901875 10.01948841 -0.0625 8.4375 C-0.05798828 7.63119141 -0.05347656 6.82488281 -0.04882812 5.99414062 C-0.03700518 3.99606244 -0.01906914 1.99802217 0 0 Z " fill="#06032F" transform="translate(265,18)"/>
<path d="M0 0 C3 2 3 2 3.875 3.8125 C4.05755402 7.00719528 2.91229227 8.49423772 1 11 C-2.38973873 13.24445286 -5.25038842 13.21194808 -9.25 13.125 C-10.32765625 13.10695313 -11.4053125 13.08890625 -12.515625 13.0703125 C-13.33546875 13.04710938 -14.1553125 13.02390625 -15 13 C-15 12.67 -15 12.34 -15 12 C-14.22914063 11.93941406 -13.45828125 11.87882812 -12.6640625 11.81640625 C-11.66117188 11.73261719 -10.65828125 11.64882813 -9.625 11.5625 C-8.62726563 11.48128906 -7.62953125 11.40007813 -6.6015625 11.31640625 C-4.02072387 11.15034374 -4.02072387 11.15034374 -2 10 C-3.32 9.34 -4.64 8.68 -6 8 C-5.34 7.67 -4.68 7.34 -4 7 C-3.34 6.01 -2.68 5.02 -2 4 C-1.34 5.32 -0.68 6.64 0 8 C0 5.36 0 2.72 0 0 Z " fill="#BA2129" transform="translate(206,52)"/>
<path d="M0 0 C0.66 0.33 1.32 0.66 2 1 C3.425 8.3625 3.425 8.3625 1 12 C1.33 12 1.66 12 2 12 C2 14.97 2 17.94 2 21 C0.68 20.67 -0.64 20.34 -2 20 C-1.01 20 -0.02 20 1 20 C0.67386719 19.15050781 0.34773437 18.30101563 0.01171875 17.42578125 C-1.05142921 13.82585553 -1.23453516 10.92893321 -1.1875 7.1875 C-1.18105469 6.04667969 -1.17460937 4.90585937 -1.16796875 3.73046875 C-1 1 -1 1 0 0 Z " fill="#D00710" transform="translate(254,43)"/>
<path d="M0 0 C0.33 0 0.66 0 1 0 C1 5.94 1 11.88 1 18 C-3 17 -3 17 -4.265625 15.22265625 C-4.59046875 14.50980469 -4.9153125 13.79695313 -5.25 13.0625 C-5.58515625 12.35222656 -5.9203125 11.64195313 -6.265625 10.91015625 C-7 9 -7 9 -7 7 C-6.34 7 -5.68 7 -5 7 C-4.731875 7.639375 -4.46375 8.27875 -4.1875 8.9375 C-3.11332248 11.33131686 -3.11332248 11.33131686 0 12 C0 8.04 0 4.08 0 0 Z " fill="#120E61" transform="translate(281,16)"/>
<path d="M0 0 C1.5613959 2.93270882 2.66538899 5.82068273 3.625 9 C3.88539063 9.845625 4.14578125 10.69125 4.4140625 11.5625 C5 14 5 14 5 18 C3.35 18 1.7 18 0 18 C-0.66 16.02 -1.32 14.04 -2 12 C-1.34 12 -0.68 12 0 12 C0.33 13.32 0.66 14.64 1 16 C1.66 16 2.32 16 3 16 C2.505 14.845 2.01 13.69 1.5 12.5 C-0.15562957 8.14717108 -0.24775605 4.62477967 0 0 Z " fill="#090746" transform="translate(140,17)"/>
<path d="M0 0 C1.4783226 2.95664519 1.06032783 5.74229737 1 9 C-0.65 9.66 -2.3 10.32 -4 11 C-4 7.7 -4 4.4 -4 1 C-2 0 -2 0 0 0 Z " fill="#C2C3C8" transform="translate(48,56)"/>
<path d="M0 0 C0.66 0 1.32 0 2 0 C6.40774487 11.52164009 6.40774487 11.52164009 7 17 C6.01 17 5.02 17 4 17 C3.731875 16.21625 3.46375 15.4325 3.1875 14.625 C2.15185568 11.71885077 2.15185568 11.71885077 -1 10 C-0.34 10 0.32 10 1 10 C0.67 6.7 0.34 3.4 0 0 Z " fill="#DF1116" transform="translate(224,46)"/>
<path d="M0 0 C2.64 0 5.28 0 8 0 C9.49821059 3.37097383 10 5.20442119 10 9 C9.34 9 8.68 9 8 9 C7.67 7.02 7.34 5.04 7 3 C5.35 3 3.7 3 2 3 C0.68 5.64 -0.64 8.28 -2 11 C-3.13643966 7.59068103 -2.86747764 6.99664544 -1.5625 3.8125 C-1.13130859 2.73935547 -1.13130859 2.73935547 -0.69140625 1.64453125 C-0.46324219 1.10183594 -0.23507813 0.55914062 0 0 Z " fill="#A3191F" transform="translate(147,39)"/>
<path d="M0 0 C2 2 2 2 2.3125 5 C2.209375 5.99 2.10625 6.98 2 8 C1.01 8.66 0.02 9.32 -1 10 C-1 9.01 -1 8.02 -1 7 C-0.34 7 0.32 7 1 7 C1 5.68 1 4.36 1 3 C-3.01804691 2.15901344 -6.01803543 1.94595055 -10 3 C-10 2.34 -10 1.68 -10 1 C-11.65 1.33 -13.3 1.66 -15 2 C-15 1.34 -15 0.68 -15 0 C-10.08739375 -1.47378188 -4.97436509 -1.01248139 0 0 Z " fill="#C80F1D" transform="translate(88,40)"/>
<path d="M0 0 C1.32 0 2.64 0 4 0 C4 5.28 4 10.56 4 16 C1.71937172 12.57905758 1.78074993 11.31812778 1.875 7.3125 C1.89304688 6.31863281 1.91109375 5.32476562 1.9296875 4.30078125 C1.95289063 3.54152344 1.97609375 2.78226563 2 2 C1.34 2 0.68 2 0 2 C0 5.3 0 8.6 0 12 C-0.33 12 -0.66 12 -1 12 C-1.02687279 10.18757948 -1.04633715 8.37504767 -1.0625 6.5625 C-1.07410156 5.55316406 -1.08570313 4.54382813 -1.09765625 3.50390625 C-1 1 -1 1 0 0 Z " fill="#04043E" transform="translate(149,13)"/>
<path d="M0 0 C0.99 0.33 1.98 0.66 3 1 C3 1.66 3 2.32 3 3 C2.34 3 1.68 3 1 3 C1.33 5.97 1.66 8.94 2 12 C0.35 12 -1.3 12 -3 12 C-3.33 11.34 -3.66 10.68 -4 10 C-3.34 10 -2.68 10 -2 10 C-2.185625 9.071875 -2.37125 8.14375 -2.5625 7.1875 C-3 4 -3 4 -2 1 C-1.34 0.67 -0.68 0.34 0 0 Z " fill="#69707A" transform="translate(28,53)"/>
<path d="M0 0 C0.33 0 0.66 0 1 0 C1.04898438 0.99902344 1.09796875 1.99804688 1.1484375 3.02734375 C1.22320312 4.31769531 1.29796875 5.60804687 1.375 6.9375 C1.44460937 8.22527344 1.51421875 9.51304688 1.5859375 10.83984375 C1.72257812 11.88269531 1.85921875 12.92554688 2 14 C2.66 14.33 3.32 14.66 4 15 C3.938125 13.576875 3.938125 13.576875 3.875 12.125 C4 9 4 9 6 7 C6.66 7.66 7.32 8.32 8 9 C7.34 9 6.68 9 6 9 C6 11.64 6 14.28 6 17 C4.02 17 2.04 17 0 17 C0 11.39 0 5.78 0 0 Z " fill="#0C083E" transform="translate(72,17)"/>
<path d="M0 0 C0.33 0.66 0.66 1.32 1 2 C0.67 2.99 0.34 3.98 0 5 C-2.31 4.67 -4.62 4.34 -7 4 C-7 5.65 -7 7.3 -7 9 C-7.66 9 -8.32 9 -9 9 C-8.4140625 2.84765625 -8.4140625 2.84765625 -8 1 C-5.29120665 -0.35439668 -2.99066732 -0.06501451 0 0 Z " fill="#07044A" transform="translate(104,21)"/>
<path d="M0 0 C0.99 0.66 1.98 1.32 3 2 C3 2.99 3 3.98 3 5 C-1.95 5.33 -6.9 5.66 -12 6 C-12 5.34 -12 4.68 -12 4 C-12.66 3.34 -13.32 2.68 -14 2 C-13.07316406 1.93941406 -12.14632812 1.87882812 -11.19140625 1.81640625 C-9.39509766 1.69072266 -9.39509766 1.69072266 -7.5625 1.5625 C-5.77005859 1.44068359 -5.77005859 1.44068359 -3.94140625 1.31640625 C-1.11429756 1.32343886 -1.11429756 1.32343886 0 0 Z " fill="#56447A" transform="translate(45,31)"/>
<path d="M0 0 C0.99 0.33 1.98 0.66 3 1 C2.125 8.875 2.125 8.875 1 10 C-0.66617115 10.04063832 -2.33388095 10.042721 -4 10 C-4 8.68 -4 7.36 -4 6 C-3.34 6 -2.68 6 -2 6 C-1.34 4.02 -0.68 2.04 0 0 Z " fill="#0D095A" transform="translate(130,25)"/>
<path d="M0 0 C6.75 0.75 6.75 0.75 9 3 C9.125 5.625 9.125 5.625 9 8 C7.68 8.33 6.36 8.66 5 9 C4.731875 8.030625 4.46375 7.06125 4.1875 6.0625 C3.795625 5.051875 3.40375 4.04125 3 3 C2.01 2.67 1.02 2.34 0 2 C0 1.34 0 0.68 0 0 Z " fill="#D50C12" transform="translate(102,40)"/>
<path d="M0 0 C1.32 1.32 2.64 2.64 4 4 C3.67 4.99 3.34 5.98 3 7 C2.34 7 1.68 7 1 7 C0.34 10.63 -0.32 14.26 -1 18 C-3 14 -3 14 -2.125 11.1875 C-1.75375 10.135625 -1.3825 9.08375 -1 8 C-0.96175377 5.66698014 -0.95425716 3.33288492 -1 1 C-0.67 0.67 -0.34 0.34 0 0 Z " fill="#0F0961" transform="translate(269,15)"/>
<path d="M0 0 C2.31 0 4.62 0 7 0 C7 3.63 7 7.26 7 11 C5.35 11 3.7 11 2 11 C2.66 10.67 3.32 10.34 4 10 C4 7.03 4 4.06 4 1 C2.68 0.67 1.36 0.34 0 0 Z " fill="#EDECF2" transform="translate(36,57)"/>
<path d="M0 0 C0.99 0.33 1.98 0.66 3 1 C2.01 1.33 1.02 1.66 0 2 C-0.33 5.3 -0.66 8.6 -1 12 C-2.32 12.33 -3.64 12.66 -5 13 C-4.48474397 7.71862571 -2.74522883 4.42778844 0 0 Z " fill="#D30D13" transform="translate(149,41)"/>
<path d="M0 0 C0.33 0.66 0.66 1.32 1 2 C2.65 2 4.3 2 6 2 C5.34 4.31 4.68 6.62 4 9 C3.34 9 2.68 9 2 9 C1.67 9.66 1.34 10.32 1 11 C0 10 0 10 -0.09765625 7.71484375 C-0.08605469 6.79832031 -0.07445312 5.88179687 -0.0625 4.9375 C-0.05347656 4.01839844 -0.04445313 3.09929688 -0.03515625 2.15234375 C-0.02355469 1.44207031 -0.01195312 0.73179688 0 0 Z " fill="#DC0C19" transform="translate(263,40)"/>
<path d="M0 0 C0.99 0.33 1.98 0.66 3 1 C2.01 2.485 2.01 2.485 1 4 C3.97 4.99 6.94 5.98 10 7 C9.01 7.66 8.02 8.32 7 9 C4.125 8.25 4.125 8.25 1 7 C0.05125 6.62875 -0.8975 6.2575 -1.875 5.875 C-2.57625 5.58625 -3.2775 5.2975 -4 5 C-2.68 3.35 -1.36 1.7 0 0 Z " fill="#AF2D2F" transform="translate(18,10)"/>
<path d="M0 0 C1.32 0 2.64 0 4 0 C5 3 5 3 4.9375 5.5625 C4.72472678 8.18389309 4.72472678 8.18389309 7 10 C5.68 10 4.36 10 3 10 C3 10.99 3 11.98 3 13 C2.01 12.67 1.02 12.34 0 12 C0 9.36 0 6.72 0 4 C0.66 4 1.32 4 2 4 C2.33 3.34 2.66 2.68 3 2 C2.01 1.67 1.02 1.34 0 1 C0 0.67 0 0.34 0 0 Z " fill="#DF131D" transform="translate(74,41)"/>
<path d="M0 0 C2.4375 0.8125 2.4375 0.8125 5 2 C5.8814688 4.64440639 6.16174818 6.28060752 6.1875 9 C6.20167969 9.680625 6.21585937 10.36125 6.23046875 11.0625 C6 13 6 13 4 16 C3.34 16 2.68 16 2 16 C1.67 15.01 1.34 14.02 1 13 C1.66 12.67 2.32 12.34 3 12 C4.02827577 9.25789019 4.02827577 9.25789019 4 6 C2.18621008 2.65247442 2.18621008 2.65247442 0 0 Z " fill="#100D5D" transform="translate(255,16)"/>
<path d="M0 0 C0.96084527 3.07748993 0.93970894 5.21927355 0.375 8.375 C-0.20976063 12.74265654 0.58359967 15.23041548 3 19 C0 18 0 18 -1.75 14.9375 C-3.445458 10.63227942 -2.97098545 7.48147132 -2 3 C-1.34 2.01 -0.68 1.02 0 0 Z " fill="#B41C26" transform="translate(117,43)"/>
<path d="M0 0 C1.65 0 3.3 0 5 0 C5 2.31 5 4.62 5 7 C4.34 7 3.68 7 3 7 C2.67 7.66 2.34 8.32 2 9 C1.34 9 0.68 9 0 9 C0 6.03 0 3.06 0 0 Z " fill="#0C0746" transform="translate(209,13)"/>
<path d="M0 0 C0.66 0 1.32 0 2 0 C3.01603857 5.79141983 2.96263236 9.4584498 1 15 C0.67 15 0.34 15 0 15 C-0.19601608 13.25093341 -0.38147403 11.50068154 -0.5625 9.75 C-0.66691406 8.77546875 -0.77132812 7.8009375 -0.87890625 6.796875 C-0.98974468 4.2368648 -0.77738092 2.41851841 0 0 Z " fill="#03020A" transform="translate(58,30)"/>
<path d="M0 0 C0.99 1.32 1.98 2.64 3 4 C2.01 4.99 1.02 5.98 0 7 C0.99 7 1.98 7 3 7 C3 7.99 3 8.98 3 10 C1.35 10 -0.3 10 -2 10 C-2.6875 8.375 -2.6875 8.375 -3 6 C-1.5625 2.75 -1.5625 2.75 0 0 Z " fill="#152C3D" transform="translate(12,20)"/>
<path d="M0 0 C2.00293347 3.00440021 2.49271626 4.70993945 3.125 8.1875 C3.29257813 9.08855469 3.46015625 9.98960938 3.6328125 10.91796875 C3.75398437 11.60503906 3.87515625 12.29210938 4 13 C3.58105469 12.51917969 3.16210938 12.03835937 2.73046875 11.54296875 C0.11781936 9.21340552 -2.60471479 9.32030993 -6 9 C-5.01 8.34 -4.02 7.68 -3 7 C-1.27056525 5.68732044 -1.27056525 5.68732044 0 4 C0 2.68 0 1.36 0 0 Z " fill="#110C5E" transform="translate(175,20)"/>
<path d="M0 0 C0.66 0.33 1.32 0.66 2 1 C1.67 1.66 1.34 2.32 1 3 C1 3.99 1 4.98 1 6 C1 7.66666667 1 9.33333333 1 11 C0.01 11.33 -0.98 11.66 -2 12 C-2.99 11.01 -3.98 10.02 -5 9 C-4.01 9 -3.02 9 -2 9 C-2 6.36 -2 3.72 -2 1 C-1.34 0.67 -0.68 0.34 0 0 Z " fill="#828891" transform="translate(31,55)"/>
<path d="M0 0 C0.99 0.33 1.98 0.66 3 1 C3.765625 2.99609375 3.765625 2.99609375 4.25 5.4375 C4.42015625 6.24058594 4.5903125 7.04367188 4.765625 7.87109375 C5 10 5 10 4 12 C3.34 12 2.68 12 2 12 C1.34 8.04 0.68 4.08 0 0 Z " fill="#DE0F16" transform="translate(181,44)"/>
<path d="M0 0 C0.33 0 0.66 0 1 0 C1 4.29 1 8.58 1 13 C1.66 13 2.32 13 3 13 C3 9.37 3 5.74 3 2 C3.66 2.33 4.32 2.66 5 3 C4.67 6.63 4.34 10.26 4 14 C2.68 14.33 1.36 14.66 0 15 C-1.47193312 12.05613377 -0.84936173 9.62609964 -0.5625 6.375 C-0.46066406 5.18648437 -0.35882813 3.99796875 -0.25390625 2.7734375 C-0.17011719 1.85820313 -0.08632813 0.94296875 0 0 Z " fill="#BA323E" transform="translate(34,38)"/>
<path d="M0 0 C0.66 0.33 1.32 0.66 2 1 C2 2.32 2 3.64 2 5 C2.66 3.68 3.32 2.36 4 1 C4.66 1.66 5.32 2.32 6 3 C5.34 4.65 4.68 6.3 4 8 C2.02 8 0.04 8 -2 8 C-1.34 5.36 -0.68 2.72 0 0 Z " fill="#0A073C" transform="translate(164,27)"/>
<path d="M0 0 C2 3 2 3 1.625 5.6875 C1.41875 6.450625 1.2125 7.21375 1 8 C1.99 8 2.98 8 4 8 C4 5.69 4 3.38 4 1 C6 3 6 3 6.125 6.625 C6.08375 7.73875 6.0425 8.8525 6 10 C4.02 10 2.04 10 0 10 C0 6.7 0 3.4 0 0 Z " fill="#0F0B43" transform="translate(208,25)"/>
<path d="M0 0 C0.33 0.99 0.66 1.98 1 3 C3.97 3.495 3.97 3.495 7 4 C5.63016497 7.16115776 5.0109362 7.9927092 2 10 C0.39644899 6.49223216 -0.22036864 3.85645121 0 0 Z " fill="#E9EDEF" transform="translate(10,40)"/>
<path d="M0 0 C3.3 0 6.6 0 10 0 C9.67 0.66 9.34 1.32 9 2 C7.02 2 5.04 2 3 2 C2.34 3.65 1.68 5.3 1 7 C-0.98 7 -2.96 7 -5 7 C-4.67 5.68 -4.34 4.36 -4 3 C-4 3.99 -4 4.98 -4 6 C-2.68 6 -1.36 6 0 6 C0 4.02 0 2.04 0 0 Z " fill="#B0242C" transform="translate(216,58)"/>
<path d="M0 0 C2.31 0.33 4.62 0.66 7 1 C7 2.32 7 3.64 7 5 C4.69 5 2.38 5 0 5 C0 3.35 0 1.7 0 0 Z " fill="#E10F18" transform="translate(167,58)"/>
<path d="M0 0 C3 1 3 1 4 3 C4.039992 4.99960012 4.04346799 7.00047242 4 9 C3.01 9 2.02 9 1 9 C0.63877119 7.68942607 0.28619689 6.37646376 -0.0625 5.0625 C-0.35833984 3.96615234 -0.35833984 3.96615234 -0.66015625 2.84765625 C-0.77230469 2.23792969 -0.88445312 1.62820312 -1 1 C-0.67 0.67 -0.34 0.34 0 0 Z " fill="#DB0D16" transform="translate(203,51)"/>
<path d="M0 0 C2.475 0.99 2.475 0.99 5 2 C5.8125 4.125 5.8125 4.125 6 6 C4.68 5.34 3.36 4.68 2 4 C2 6.31 2 8.62 2 11 C1.34 11 0.68 11 0 11 C0 7.37 0 3.74 0 0 Z " fill="#1A2535" transform="translate(19,46)"/>
<path d="M0 0 C2.31 0 4.62 0 7 0 C11 6.75 11 6.75 11 9 C10.34 9 9.68 9 9 9 C8.62875 8.030625 8.2575 7.06125 7.875 6.0625 C6.28947638 2.68859031 6.28947638 2.68859031 2.8125 2.125 C1.884375 2.08375 0.95625 2.0425 0 2 C0 1.34 0 0.68 0 0 Z " fill="#B11C23" transform="translate(237,40)"/>
<path d="M0 0 C0.66 0 1.32 0 2 0 C2.33 2.31 2.66 4.62 3 7 C3.99 7 4.98 7 6 7 C5.67 9.64 5.34 12.28 5 15 C2.32449708 12.32449708 2.16790611 10.05120106 1.375 6.375 C0.98441406 4.59222656 0.98441406 4.59222656 0.5859375 2.7734375 C0.39257812 1.85820312 0.19921875 0.94296875 0 0 Z " fill="#110D5A" transform="translate(190,15)"/>
<path d="M0 0 C3.49873271 1.39655297 4.70891831 2.71260484 6.25 6.125 C6.58515625 6.84945313 6.9203125 7.57390625 7.265625 8.3203125 C7.62914062 9.15175781 7.62914062 9.15175781 8 10 C7.01 10 6.02 10 5 10 C3.61328125 8.57421875 3.61328125 8.57421875 2.3125 6.6875 C1.87550781 6.07261719 1.43851563 5.45773438 0.98828125 4.82421875 C0 3 0 3 0 0 Z " fill="#0A0F16" transform="translate(50,18)"/>
<path d="M0 0 C1.32 0.33 2.64 0.66 4 1 C4.1875 4.375 4.1875 4.375 4 8 C3.01 8.66 2.02 9.32 1 10 C0.67 6.7 0.34 3.4 0 0 Z " fill="#8B939A" transform="translate(48,55)"/>
<path d="M0 0 C0.66 0 1.32 0 2 0 C2.33 2.31 2.66 4.62 3 7 C0.03 6.505 0.03 6.505 -3 6 C-3.33 7.65 -3.66 9.3 -4 11 C-4.33 11 -4.66 11 -5 11 C-5 9.02 -5 7.04 -5 5 C-4.360625 4.731875 -3.72125 4.46375 -3.0625 4.1875 C-0.66868314 3.11332248 -0.66868314 3.11332248 0 0 Z " fill="#BC1C20" transform="translate(200,49)"/>
<path d="M0 0 C2.00293347 3.00440021 2.49271626 4.70993945 3.125 8.1875 C3.37636719 9.53908203 3.37636719 9.53908203 3.6328125 10.91796875 C3.75398437 11.60503906 3.87515625 12.29210938 4 13 C3.34 13 2.68 13 2 13 C0.21590198 9.93753253 -0.22880021 7.77920727 -0.125 4.25 C-0.10695312 3.45078125 -0.08890625 2.6515625 -0.0703125 1.828125 C-0.04710937 1.22484375 -0.02390625 0.6215625 0 0 Z " fill="#C11B25" transform="translate(227,44)"/>
<path d="M0 0 C1.77285431 3.54570863 2.71229813 6.43324673 3.625 10.25 C4.01558594 11.86648437 4.01558594 11.86648437 4.4140625 13.515625 C4.60742188 14.33546875 4.80078125 15.1553125 5 16 C4.34 16 3.68 16 3 16 C2.87625 15.360625 2.7525 14.72125 2.625 14.0625 C2.41875 13.381875 2.2125 12.70125 2 12 C1.34 11.67 0.68 11.34 0 11 C0 7.37 0 3.74 0 0 Z " fill="#100B5F" transform="translate(138,17)"/>
<path d="M0 0 C2.3129482 2.3129482 2.49580975 3.47904875 3.125 6.625 C3.29257812 7.44226563 3.46015625 8.25953125 3.6328125 9.1015625 C3.81457031 10.04128906 3.81457031 10.04128906 4 11 C1.69 10.01 -0.62 9.02 -3 8 C-3 7.34 -3 6.68 -3 6 C-1.68 6.33 -0.36 6.66 1 7 C0.67 4.69 0.34 2.38 0 0 Z " fill="#6F1B1C" transform="translate(29,12)"/>
<path d="M0 0 C1.98 0.99 1.98 0.99 4 2 C4 4.97 4 7.94 4 11 C3.67 9.68 3.34 8.36 3 7 C2.01 7 1.02 7 0 7 C0 4.69 0 2.38 0 0 Z " fill="#CB1118" transform="translate(134,43)"/>
<path d="M0 0 C0.66 0 1.32 0 2 0 C1.67 3.3 1.34 6.6 1 10 C-0.32 10 -1.64 10 -3 10 C-2.17830062 6.59581686 -1.10747484 3.32242452 0 0 Z " fill="#09054A" transform="translate(269,24)"/>
<path d="M0 0 C0.66 0.99 1.32 1.98 2 3 C2.33 2.34 2.66 1.68 3 1 C3.66 1 4.32 1 5 1 C5.33 2.65 5.66 4.3 6 6 C4.02 6 2.04 6 0 6 C-0.38218767 4.34385343 -0.71395102 2.67542976 -1 1 C-0.67 0.67 -0.34 0.34 0 0 Z " fill="#0D0741" transform="translate(176,29)"/>
<path d="M0 0 C1.65 0 3.3 0 5 0 C4.34 2.97 3.68 5.94 3 9 C2.67 9 2.34 9 2 9 C1.67 7.02 1.34 5.04 1 3 C0.34 3 -0.32 3 -1 3 C-0.67 2.01 -0.34 1.02 0 0 Z " fill="#0B0A3C" transform="translate(202,13)"/>
<path d="M0 0 C1.65 0 3.3 0 5 0 C5 2.64 5 5.28 5 8 C2.48916886 6.74458443 2.12874554 5.49936512 1 3 C0.01 3.495 0.01 3.495 -1 4 C-0.67 2.68 -0.34 1.36 0 0 Z " fill="#070540" transform="translate(73,12)"/>
<path d="M0 0 C0.66 0 1.32 0 2 0 C2.99 2.64 3.98 5.28 5 8 C3.35 7.67 1.7 7.34 0 7 C0 4.69 0 2.38 0 0 Z " fill="#E00F18" transform="translate(264,56)"/>
<path d="M0 0 C0.66 0 1.32 0 2 0 C2 2.97 2 5.94 2 9 C1.01 9.33 0.02 9.66 -1 10 C-2.31223496 6.06329512 -1.24296256 3.87511856 0 0 Z " fill="#45505F" transform="translate(24,54)"/>
<path d="M0 0 C1.98 0 3.96 0 6 0 C6 0.99 6 1.98 6 3 C4.35 3 2.7 3 1 3 C1 3.66 1 4.32 1 5 C0.34 5 -0.32 5 -1 5 C-0.67 3.35 -0.34 1.7 0 0 Z " fill="#E41017" transform="translate(168,42)"/>
<path d="M0 0 C0.33 1.32 0.66 2.64 1 4 C0.34 4 -0.32 4 -1 4 C-1 4.66 -1 5.32 -1 6 C-2.65 6 -4.3 6 -6 6 C-6 4.68 -6 3.36 -6 2 C-3.525 2.495 -3.525 2.495 -1 3 C-0.67 2.01 -0.34 1.02 0 0 Z " fill="#DD151C" transform="translate(181,57)"/>
<path d="M0 0 C1.9375 0.5625 1.9375 0.5625 4 2 C4.9375 5.4375 4.9375 5.4375 5 9 C3.5625 10.9375 3.5625 10.9375 2 12 C2.04125 10.7625 2.0825 9.525 2.125 8.25 C2.13658291 4.98362038 1.8568702 2.7853053 0 0 Z " fill="#AD181D" transform="translate(86,50)"/>
<path d="M0 0 C2 1.625 2 1.625 4 4 C4.25 7.25 4.25 7.25 4 10 C1 8 1 8 0.48828125 6.0546875 C0.32552083 4.03645833 0.16276042 2.01822917 0 0 Z " fill="#47103E" transform="translate(30,41)"/>
<path d="M0 0 C2.16874252 0.50603992 3.99967627 0.99983813 6 2 C6 3.32 6 4.64 6 6 C5.01 6.33 4.02 6.66 3 7 C2.67 5.68 2.34 4.36 2 3 C1.01 3 0.02 3 -1 3 C-0.67 2.01 -0.34 1.02 0 0 Z " fill="#DC1015" transform="translate(83,41)"/>
<path d="M0 0 C0.33 0.66 0.66 1.32 1 2 C2.175625 1.9071875 2.175625 1.9071875 3.375 1.8125 C4.674375 1.9053125 4.674375 1.9053125 6 2 C6.99 3.485 6.99 3.485 8 5 C7.67 5.99 7.34 6.98 7 8 C6.67 7.34 6.34 6.68 6 6 C4.02111039 5.27306096 2.02045442 4.60183749 0 4 C0 2.68 0 1.36 0 0 Z " fill="#425765" transform="translate(9,28)"/>
<path d="M0 0 C0.66 0.33 1.32 0.66 2 1 C1.62875 1.556875 1.2575 2.11375 0.875 2.6875 C-0.29515863 5.05716353 -0.29515863 5.05716353 0.875 7.75 C1.24625 8.4925 1.6175 9.235 2 10 C-0.47128202 9.0433747 -1.72986449 8.54027102 -2.9375 6.125 C-3.0225942 3.23179718 -1.88243538 2.10832763 0 0 Z " fill="#0C064A" transform="translate(84,17)"/>
<path d="M0 0 C0.33 0 0.66 0 1 0 C1 2.97 1 5.94 1 9 C-0.65 9.33 -2.3 9.66 -4 10 C-3.34 9.34 -2.68 8.68 -2 8 C-2 7.01 -2 6.02 -2 5 C-2 2 -2 2 0 0 Z " fill="#D2D2D4" transform="translate(39,58)"/>
<path d="M0 0 C2.97 0.99 5.94 1.98 9 3 C9 3.33 9 3.66 9 4 C7.54207116 4.05399736 6.08357288 4.09279177 4.625 4.125 C3.81289062 4.14820313 3.00078125 4.17140625 2.1640625 4.1953125 C0 4 0 4 -2 2 C-1.34 1.34 -0.68 0.68 0 0 Z " fill="#D30915" transform="translate(122,59)"/>
<path d="M0 0 C0.66 0 1.32 0 2 0 C2 2.64 2 5.28 2 8 C2.66 8.33 3.32 8.66 4 9 C2.68 9.33 1.36 9.66 0 10 C0 6.7 0 3.4 0 0 Z " fill="#E9EFEC" transform="translate(44,57)"/>
<path d="M0 0 C0.36923077 5.53846154 0.36923077 5.53846154 -1.5 7.875 C-2.2425 8.431875 -2.2425 8.431875 -3 9 C-3.33 6.69 -3.66 4.38 -4 2 C-1 0 -1 0 0 0 Z " fill="#344150" transform="translate(57,50)"/>
<path d="M0 0 C0.33 0.66 0.66 1.32 1 2 C1.804375 2.144375 2.60875 2.28875 3.4375 2.4375 C6 3 6 3 8 6 C5.69 5.34 3.38 4.68 1 4 C0.67 5.32 0.34 6.64 0 8 C0 5.36 0 2.72 0 0 Z " fill="#98A3AB" transform="translate(9,34)"/>
<path d="M0 0 C0.66 0 1.32 0 2 0 C2.33 1.32 2.66 2.64 3 4 C3.66 4 4.32 4 5 4 C5 3.34 5 2.68 5 2 C5.66 2 6.32 2 7 2 C7 3.32 7 4.64 7 6 C5.35 6 3.7 6 2 6 C1.34 4.02 0.68 2.04 0 0 Z " fill="#080436" transform="translate(138,29)"/>
<path d="M0 0 C0.33 0 0.66 0 1 0 C1.09796875 0.61488281 1.1959375 1.22976562 1.296875 1.86328125 C2.13291046 6.99409305 2.13291046 6.99409305 5.125 11.0625 C5.74375 11.371875 6.3625 11.68125 7 12 C1.125 11.125 1.125 11.125 0 10 C-0.07205511 8.31391034 -0.08386068 6.62499341 -0.0625 4.9375 C-0.05347656 4.01839844 -0.04445313 3.09929688 -0.03515625 2.15234375 C-0.02355469 1.44207031 -0.01195313 0.73179688 0 0 Z " fill="#B42227" transform="translate(120,48)"/>
<path d="M0 0 C1.70884005 1.62339805 3.37446717 3.29319053 5 5 C5 5.66 5 6.32 5 7 C5.66 7.33 6.32 7.66 7 8 C7 8.66 7 9.32 7 10 C6.34 10 5.68 10 5 10 C3.7109375 8.57421875 3.7109375 8.57421875 2.375 6.6875 C1.92898438 6.07261719 1.48296875 5.45773438 1.0234375 4.82421875 C0 3 0 3 0 0 Z " fill="#020409" transform="translate(11,50)"/>
<path d="M0 0 C2 2 2 2 2.25 5 C2 8 2 8 0 10 C0 8.02 0 6.04 0 4 C-0.66 4 -1.32 4 -2 4 C-2 3.34 -2 2.68 -2 2 C-1.34 2 -0.68 2 0 2 C0 1.34 0 0.68 0 0 Z " fill="#5F6A74" transform="translate(52,52)"/>
<path d="M0 0 C0.99 0.495 0.99 0.495 2 1 C2.484375 2.77734375 2.484375 2.77734375 2.75 4.9375 C2.84796875 5.64777344 2.9459375 6.35804687 3.046875 7.08984375 C3 9 3 9 1 11 C-0.20272819 8.59454362 -0.10071472 7.05003047 -0.0625 4.375 C-0.05347656 3.55773438 -0.04445312 2.74046875 -0.03515625 1.8984375 C-0.02355469 1.27195313 -0.01195312 0.64546875 0 0 Z " fill="#DB0D16" transform="translate(254,43)"/>
<path d="M0 0 C4.875 0.875 4.875 0.875 6 2 C6.25 4.9375 6.25 4.9375 6 8 C5.01 8.66 4.02 9.32 3 10 C3 9.01 3 8.02 3 7 C3.66 7 4.32 7 5 7 C5 5.68 5 4.36 5 3 C2.525 2.01 2.525 2.01 0 1 C0 0.67 0 0.34 0 0 Z " fill="#B0151C" transform="translate(84,40)"/>
<path d="M0 0 C0.99 0.99 1.98 1.98 3 3 C1.02 5.97 1.02 5.97 -1 9 C-1.68707555 6.50935112 -2 4.62113708 -2 2 C-1.34 2 -0.68 2 0 2 C0 1.34 0 0.68 0 0 Z " fill="#120B5F" transform="translate(167,24)"/>
<path d="M0 0 C1.98 0 3.96 0 6 0 C6.33 0.66 6.66 1.32 7 2 C6.01 3.485 6.01 3.485 5 5 C5 4.34 5 3.68 5 3 C3.35 3 1.7 3 0 3 C0 2.01 0 1.02 0 0 Z " fill="#0C0841" transform="translate(98,21)"/>
<path d="M0 0 C2.64 0 5.28 0 8 0 C8.33 1.65 8.66 3.3 9 5 C8.34 4.34 7.68 3.68 7 3 C4.68234271 2.28072705 2.34904126 1.6090107 0 1 C0 0.67 0 0.34 0 0 Z " fill="#9C141B" transform="translate(20,9)"/>
<path d="M0 0 C0.99 0.33 1.98 0.66 3 1 C2.67 1.66 2.34 2.32 2 3 C2.28112064 5.00800456 2.61067967 7.01014051 3 9 C-1 4.375 -1 4.375 -1 1 C-0.67 0.67 -0.34 0.34 0 0 Z " fill="#110A5F" transform="translate(118,22)"/>
<path d="M0 0 C1.98 0 3.96 0 6 0 C6.33 0.99 6.66 1.98 7 3 C4.36 3 1.72 3 -1 3 C-0.67 2.01 -0.34 1.02 0 0 Z " fill="#CE0910" transform="translate(219,55)"/>
<path d="M0 0 C0.99 0.33 1.98 0.66 3 1 C3 2.32 3 3.64 3 5 C1.68 5.33 0.36 5.66 -1 6 C-0.67 4.02 -0.34 2.04 0 0 Z " fill="#E20E20" transform="translate(97,49)"/>
<path d="M0 0 C1.5625 1.75 1.5625 1.75 3 4 C2.6875 6.25 2.6875 6.25 2 8 C0.68 7.67 -0.64 7.34 -2 7 C-1.34 6.67 -0.68 6.34 0 6 C0 4.02 0 2.04 0 0 Z " fill="#A0A5AD" transform="translate(33,60)"/>
<path d="M0 0 C1.60031344 3.20062687 0.03173691 5.72271806 -1 9 C-1.66 8.34 -2.32 7.68 -3 7 C-2.75 3.9375 -2.75 3.9375 -2 1 C-1.34 0.67 -0.68 0.34 0 0 Z " fill="#5A636E" transform="translate(28,53)"/>
<path d="M0 0 C0.33 0 0.66 0 1 0 C1.22151549 1.79008467 1.42682213 3.58218162 1.625 5.375 C1.74101562 6.37273438 1.85703125 7.37046875 1.9765625 8.3984375 C1.98429687 9.25695313 1.99203125 10.11546875 2 11 C1.34 11.66 0.68 12.32 0 13 C-1.0161692 8.37078475 -0.83796731 4.65537393 0 0 Z " fill="#293447" transform="translate(21,50)"/>
<path d="M0 0 C0.33 0.66 0.66 1.32 1 2 C2.98 2 4.96 2 7 2 C6.67 2.66 6.34 3.32 6 4 C4.02 4 2.04 4 0 4 C0 2.68 0 1.36 0 0 Z " fill="#0D0B3E" transform="translate(194,31)"/>
<path d="M0 0 C0.928125 0.2784375 0.928125 0.2784375 1.875 0.5625 C4.04160178 1.23686176 4.04160178 1.23686176 6 0 C5.67 1.32 5.34 2.64 5 4 C3.35 4 1.7 4 0 4 C0 2.68 0 1.36 0 0 Z " fill="#0D0A3B" transform="translate(126,31)"/>
<path d="M0 0 C1.32 0 2.64 0 4 0 C3.67 1.65 3.34 3.3 3 5 C1.68 4.34 0.36 3.68 -1 3 C-0.67 2.01 -0.34 1.02 0 0 Z " fill="#DB1C21" transform="translate(20,11)"/>
</svg>
